<?xml version="1.0" encoding="utf-8"?>
<!-- Generator: Adobe Illustrator 27.9.5, SVG Export Plug-In . SVG Version: 9.03 Build 54986)  -->
<svg version="1.1" id="Calque_1" xmlns="http://www.w3.org/2000/svg" xmlns:xlink="http://www.w3.org/1999/xlink" x="0px" y="0px"
	 viewBox="0 0 1920 130.7" style="enable-background:new 0 0 1920 130.7;" xml:space="preserve">
<style type="text/css">
	.st0{fill:#E0DCC9;}
	.st1{fill:#1D1D1B;}
</style>
<path class="st0" d="M1919.3,105.6c-1.9,0.6-3.7,1.4-5.6,2.1c-2.6,0.8-4.6,2.7-7.2,3.6c-2,0.8-3.6,0.4-5.6-0.3
	c-3.1-1.1-4.7-1.6-7.9-1.5c-5.2,0.1-10.3,0.2-15.5,0.5c-4.9,0.3-10.6,0.5-15.1,3c-1.2,0.7-3.1,0.2-3.4-1.5
	c-2.5-15.2,5.9-30.2,13.8-42c7-10.6,15.2-20.4,23.7-29.7c-14,4.5-27,12.1-38.9,21.1c-14.4,11-28.6,25.3-35.3,43.4
	c-0.7,2-3.1,2.5-4.3,0.6c-10.7-17.4-22.1-37.5-40.5-46c7.1,15.5,18.2,29.6,15.4,48.1c-0.3,1.6-2.2,2.3-3.4,1.5
	c-5-3.3-8.8-3.1-14.3-1.6c-3.6,1-7.6,1.9-11.2,1s-5.7-4.6-9.1-6c-5.4-2.3-11.1,5.1-14.8,8.3c-0.9,0.8-2.4,1.1-3.2,0
	c-18.1-24.5,7-55.4,22.1-75.9c-13.1,3.2-25.6,14.8-34.6,24.2c-9.5,10.1-23.8,27.2-19.6,43.1c0.7,2.7-2.9,4.4-4.3,1.9
	c-5.8-10.9-6.6-22.5-3.4-34.5c2.8-10.5,7.5-20.1,10.7-30.3c-9.1,5.5-16.6,15.8-23,23.9c-4.5,5.6-8.6,11.1-11.2,18
	c-2.6,6.8-4.3,13.9-6.8,20.8c-0.7,2.1-3,2.4-4.2,0.6c-14.7-20.7-31.6-40.4-54.4-49.2c8.8,7.9,18.1,15.1,21.7,27.8
	c1.4,4.7,2.9,11-0.1,15.5c-2.6,4-7.7,4.7-11.8,5.3c-3.4,0.5-6,1.1-9.2,2.8c-2.1,1.1-4.9,2.8-7.3,1.5c-1.9-1-2.2-4.3-4.3-4.5
	c-2.2-0.2-6.3,2.6-8.3,3.5c-3.2,1.5-7.6,4.5-11,2.4c-3.6-2.2-4.4-6.9-3.9-11.1c1.4-10.9,8.3-19.9,13.8-29
	c-17.8,3.2-28.6,18.7-37.4,35.1c-1.3,2.5-4.8,0.8-4.3-1.9c3.7-16.8-4.9-29.2-15.9-39.7c-3.8-3.6-7.9-7.5-12.6-9.8
	c-0.9-0.5-4.4-2.2-5.2-0.9c-0.5,0.7,1.3,4.6,1.6,5.3c3.5,9.5,10.6,20.6,10.1,31.2c-0.3,5.9-3.1,13-8.3,15.6
	c-4.9,2.4-9.1-0.4-12.2-4.2c-4.3,3-7.8,3.6-12.4,0.2c-8.2-5.9-14.3,1.9-22.4,3.8c-0.9,0.2-2.1-0.1-2.6-1.2c-3.1-7-0.8-15,1.8-21.7
	c3.5-9.3,8.7-18,14.3-26c11.6-16.5,27.6-26,44.9-33.4c-6.8,0.4-13.6,3.2-19.5,5.6c-10.2,4.2-19.9,9.8-29.3,15.7
	c-9.1,5.7-17.7,11.9-25.4,19.7c-8.3,8.6-16.9,20.1-15.5,33.4c0.3,2.9-3.9,3.3-4.5,0.7c-3.6-13.8-16.7-36.9-32.2-34.6
	c7.2,7.7,12.9,19.1,13.9,29.5c0.4,4.2-0.3,9.1-4.4,10.9c-4.6,2.1-10.2-0.7-14.6-3.5c-4.8,0.1-9.1-1.2-13.3-3.7
	c-4.4-2.6-10.5-5.8-15.5-2.7c-3.5,2.2-5.6,6.2-9.3,8.2c-4.2,2.2-9,2.5-13.5,2.5c-5.7,0-11.5-0.6-17.1-1.4c-4.4-0.6-9.2-1-13.2-2.7
	c-3.1-1.3-5.6-4-8.8-4.6c-2.7-0.5-5.4,0.4-8,1.2c-5.1,1.6-10.1,3.7-15.1,5.7c-1.5,0.6-2.9-0.9-3-2.4c-1.6-24.6,22.9-38.3,38-52.7
	c-13.6-3.7-30.4,6.5-41.2,13.8c-5.9,4-11.8,8.4-16.9,13.5c-7.8,7.6-16.2,15.1-21.8,24.9c-1.1,2-4.4,1.3-4.3-1.3
	c0.7-10.8,4.6-20.7,8.9-30.4c4.2-9.4,8.1-19.1,13.5-27.8c4.8-7.8,10.7-14.8,17.6-20.4c3.3-2.7,9.3-5.2,13.2-8.7
	c-17.4,8.9-34.3,19.2-49.2,32.4c-16.8,14.9-30.5,33.1-41.4,53.5c-1.3,2.4-5.2,0.8-4.3-1.9c3.1-9.2-2.2-19.3-7.3-26.3
	c-4.3-5.9-9.7-11.7-16.1-15.1c4.4,13.1,11.3,25.7,7.3,39.9c-0.5,1.6-2.7,2.6-3.9,1.1c-16.7-22.3-43.5-35.5-70.1-35.3
	c16.8,5.2,32.5,16.9,39.2,34.5c0.6,1.6-0.8,3.1-2.2,3.2c-15.7,0.3-31.4,0.6-47.1,1.8c-9.3,0.7-19.9,0.1-28.2-5
	c-8.6-5.3-11.6-15.4-8.4-25.4c3.4-11.2,11.9-19.9,15.6-30.8c-4.6,2.1-7.8,7.1-10.8,11.4c-3.7,5.2-7.8,9.9-11.8,14.8
	c-9,10.9-14.7,22.3-17.6,36.7c-0.4,1.9-2.7,2.3-3.9,1.1c-4.5-4.6-10.4-2.4-15.6-0.4c-2.1,0.8-3.3-1.9-2.6-3.7
	c5.8-14.8,9.4-30.9,17.5-44.7c6.3-10.7,14.9-19.3,23.1-28.3c-18.9,7.8-36.6,21.3-50.5,36.6c-7.7,8.3-15.1,17.9-18.1,29.4
	c-1.2,4.3-2.6,9.2-6.4,11.6c-3.6,2.3-8.1,1.8-12.1,2.9c-4-1.1-8.5-0.6-12.1-2.9c-3.8-2.4-5.3-7.3-6.4-11.6
	c-3.1-11.5-10.6-21-18.2-29.4c-14.1-15.3-31.8-28.8-50.6-36.6c8.2,9,16.9,17.6,23.1,28.3c8.1,13.7,11.7,29.8,17.6,44.7
	c0.7,1.8-0.5,4.5-2.6,3.7c-5.2-1.9-11-4.2-15.6,0.4c-1.2,1.2-3.5,0.8-3.9-1.1c-2.9-14.4-8.6-25.7-17.6-36.7
	c-4-4.9-8.1-9.6-11.8-14.8c-3.1-4.3-6.2-9.4-10.8-11.4c3.7,11,12.2,19.7,15.7,30.8c3.1,10,0.2,20.2-8.4,25.4c-8.3,5.1-19,5.7-28.3,5
	c-15.7-1.2-31.4-1.4-47.2-1.8c-1.4,0-2.8-1.6-2.2-3.2c6.7-17.6,22.3-29.4,39.2-34.5c-26.6-0.2-53.5,13-70.3,35.3
	c-1.1,1.5-3.4,0.5-3.9-1.1c-4-14.2,3.1-26.9,7.3-39.9c-6.4,3.3-11.8,9.2-16.1,15.1c-5.2,7.1-10.6,17.1-7.4,26.3
	c0.9,2.7-3,4.3-4.3,1.9c-10.9-20.3-24.6-38.5-41.5-53.5C669.8,27,653,16.7,635.5,7.8c4,3.5,9.9,6,13.2,8.7
	c6.9,5.7,12.9,12.6,17.7,20.4c5.4,8.7,9.3,18.4,13.5,27.8c4.3,9.7,8.1,19.6,8.9,30.4c0.2,2.6-3.1,3.2-4.4,1.3
	c-5.6-9.8-14-17.2-21.8-24.9c-5.2-5.1-10.9-9.6-16.9-13.5c-10.9-7.3-27.6-17.5-41.3-13.8c15.1,14.4,39.6,28.1,38,52.7
	c-0.1,1.5-1.4,3-3,2.4c-5-2.1-10-4.2-15.2-5.7c-2.6-0.8-5.3-1.7-8-1.2c-3.3,0.6-5.7,3.4-8.9,4.6c-4.1,1.7-8.9,2.1-13.2,2.7
	c-5.6,0.8-11.4,1.4-17.1,1.4c-4.6,0-9.4-0.3-13.6-2.5c-3.8-2-5.8-6-9.3-8.2c-5-3.1-11,0.2-15.5,2.7c-4.4,2.5-8.5,3.7-13.4,3.7
	c-4.4,2.8-10.1,5.5-14.7,3.5c-4.1-1.8-4.7-6.7-4.4-10.9c1-10.4,6.8-21.8,14-29.5c-15.6-2.2-28.7,20.8-32.3,34.6
	c-0.6,2.6-4.9,2.2-4.5-0.7c1.6-13.3-7.1-24.7-15.5-33.4c-7.6-7.8-16.3-14.1-25.4-19.7c-9.4-5.9-19.2-11.5-29.4-15.7
	c-5.9-2.5-12.9-5.2-19.5-5.6c17.3,7.4,33.3,16.9,45,33.4c5.6,8,10.7,16.7,14.3,26c2.6,6.7,4.8,14.8,1.8,21.7c-0.5,1-1.7,1.4-2.6,1.2
	c-8.1-1.9-14.3-9.7-22.5-3.8c-4.7,3.3-8.2,2.8-12.5-0.2c-3.1,3.8-7.3,6.6-12.2,4.2c-5.3-2.6-8.1-9.7-8.3-15.6
	c-0.6-10.5,6.6-21.7,10.1-31.2c0.3-0.7,2-4.6,1.6-5.3c-0.9-1.2-4.3,0.5-5.3,0.9c-4.6,2.3-8.8,6.2-12.6,9.8
	c-11.1,10.6-19.7,22.9-16,39.7c0.6,2.7-2.9,4.4-4.3,1.9c-8.8-16.5-19.7-31.9-37.5-35.1c5.5,9.1,12.5,18.2,13.9,29
	c0.6,4.1-0.3,8.8-3.9,11.1c-3.4,2.2-7.9-0.9-11.1-2.4c-2-0.9-6-3.7-8.3-3.5c-2,0.2-2.4,3.5-4.3,4.5c-2.3,1.3-5.2-0.4-7.3-1.5
	c-3.1-1.7-5.7-2.3-9.2-2.8c-4.2-0.6-9.3-1.3-11.8-5.3c-3-4.4-1.4-10.7-0.1-15.5c3.6-12.7,12.9-19.9,21.8-27.8
	c-22.9,8.8-39.8,28.5-54.6,49.2c-1.2,1.8-3.4,1.5-4.3-0.6c-2.5-6.8-4.2-14-6.8-20.8c-2.7-7-6.8-12.4-11.3-18
	c-6.6-8.1-14.1-18.4-23.1-23.9c3.2,10.3,8,19.9,10.7,30.3c3.1,12,2.4,23.6-3.4,34.5c-1.3,2.5-4.9,0.8-4.3-1.9
	c4.2-15.9-10.1-33-19.6-43.1c-9-9.4-21.6-21-34.7-24.2c15.1,20.4,40.4,51.4,22.2,75.9c-0.8,1.1-2.4,0.8-3.2,0
	c-3.7-3.2-9.4-10.6-14.8-8.3c-3.3,1.4-5.5,5.1-9.1,6c-3.7,0.9-7.7,0-11.3-1c-5.5-1.4-9.3-1.7-14.3,1.6c-1.2,0.8-3.1,0.1-3.4-1.5
	c-2.9-18.5,8.2-32.6,15.5-48.1c-18.3,8.6-29.8,28.7-40.5,46c-1.2,1.9-3.5,1.4-4.3-0.6C91,86.2,76.7,71.9,62.3,60.9
	c-11.8-9-25-16.7-39-21.1c8.5,9.3,16.7,19,23.8,29.7c7.9,11.8,16.3,26.8,13.8,42c-0.3,1.7-2.2,2.2-3.4,1.5c-4.4-2.5-10.3-2.7-15.2-3
	c-5.2-0.3-10.3-0.4-15.5-0.5c-3.2-0.1-4.8,0.4-8,1.5c-2,0.7-3.5,1.1-5.6,0.3c-2.5-0.9-4.6-2.8-7.2-3.6c-1.9-0.6-3.7-1.5-5.6-2.1
	c-0.2,0-0.3-0.1-0.5-0.1v25.2h960.8h958.3L1919.3,105.6C1919.5,105.6,1919.4,105.6,1919.3,105.6z"/>
<path class="st1" d="M1918.4,100.7c-2.7,0.8-5.6,1.8-8.1,2.8c-2.5,1-3.5,2.6-6.4,2.6c-2.3,0-3.4-1-5.6-1.5c-3-0.7-6.6-0.1-9.6,0
	c-3.8,0.1-7.5,0.2-11.3,0.5c-4.7,0.3-9.8,0.6-14.3,2.3c-0.7-13.6,8.1-27.4,15.3-37.6c8.1-11.8,17.6-22.4,27.3-32.7
	c1.8-1.8-0.1-4.7-2.2-4.2c-18.3,4-35.7,13.9-50.6,25.8c-13.3,10.6-25.9,23.7-33.1,40c-11.8-19.1-24.7-39.5-45.8-46.4
	c-1.6-0.5-3.5,1.3-2.9,3.1c5.8,15.3,18.9,29.9,17.9,47.3c-3.3-1.6-6.8-2.2-10.6-1.4c-5.7,1.1-11.1,4.1-16.4-0.1
	c-4-3.1-7.2-5.8-12.2-3.9c-4,1.5-7.3,4.8-10.6,7.8c-7.4-12.3-1.5-27.8,4.9-39.3c6.5-11.9,14.8-22.3,22.6-33.2c1-1.5-0.4-3.9-2-3.8
	c-16.7,0.9-32.8,15.3-44.1,27.4c-7.6,8.1-16.8,19.8-19.8,32.2c-2.3-18.1,9.1-35.5,13.4-53.3c0.4-1.7-1.1-3.8-2.9-3.1
	c-12,4.9-21.2,17.3-29.4,27.5c-4.5,5.7-8.8,11.1-11.6,18.1c-2.4,6-4.1,12.4-6.1,18.6c-16.8-23.4-36.5-44.5-64-50.9
	c-2.2-0.5-3.9,2.3-2.2,4.2c10.2,11.1,24.2,18.1,28.2,34.3c1.2,4.7,2.1,9.8-2.9,11.7c-4.4,1.7-9.3,0.9-13.6,3
	c-1.4,0.7-2.9,2.1-4.4,2.4c-2,0.4-0.6,0.6-1.9-0.7c-1.3-1.2-1.6-2.9-3.4-3.6c-3.1-1.2-7.4,1.6-10.3,2.9c-2.5,1.1-8.1,5.3-10.2,2.3
	c-2.2-3.4,0.6-9.8,2-12.9c3.6-8.3,9-15.4,13.1-23.3c0.8-1.6-0.2-3.9-2-3.8c-18.6,1.1-31,13.5-40.6,29.1
	c-0.5-10.6-5.2-20.1-12.7-28.1c-5.2-5.6-10.9-11.2-17.3-15.1c-3.8-2.3-13.1-5.6-13.8,2.3c-0.3,2.9,1.6,6.4,2.6,9
	c1.9,4.9,4,9.7,5.8,14.6c1.4,3.6,3.1,7.6,3.3,11.5c0.1,3.8-1.2,8.6-3.9,11.2c-3.6,3.6-7.2,0.7-9.6-2.9c-0.6-1-2-1.8-3.1-0.9
	c-3.1,2.5-5.3,4.3-8.7,2c-2.1-1.4-4-2.9-6.6-3.5c-6.8-1.6-12,3.4-18.1,5.7c-1.7-6.6,2.1-15,4.6-20.4c3.5-7.7,8-15,13-21.8
	c12.7-17.4,31.2-26.1,50-33.3c2.2-0.8,2.2-4,0-4.8c-9.9-3.8-21.6,0.5-30.8,4.4c-10.8,4.5-21.3,10.4-31.3,16.8
	c-9.9,6.2-19.3,13.3-27.4,22.1c-5.9,6.5-11.8,14.6-14,23.6c-7.3-16.2-21.9-33.6-38.2-26.5c-1.9,0.8-2.2,3.2-0.6,4.6
	c7,5.9,12.3,16.2,14.5,25.4c0.6,2.5,1.9,7.7-0.7,9.4c-2.5,1.6-6.7-0.5-10-2.6c-0.1-0.2-0.2-0.4-0.4-0.5c-1.2-1.3-2.3-2-4-2.3
	c-1.1-0.2-2,0.4-2.5,1.2c-3.8-0.8-6.9-2.7-10.9-4.7c-4.1-2.1-9.3-3.3-13.7-1.9c-3.9,1.2-5.8,4.6-8.7,7.2c-4.4,4-10.3,4.1-15.8,4
	c-6.2-0.1-12.3-0.8-18.4-1.8c-2.3-0.4-4.7-0.7-7-1.3c-3.1-0.9-5.4-3-8.2-4.4c-7.7-3.8-17.7,1.1-25.5,4.6
	c1.3-21.8,26.5-34.6,39.3-48.2c0.9-1,0.9-3.3-0.5-3.9c-15.3-7.1-33.7,2.7-46.8,11.1c-7,4.5-13.8,9.6-19.8,15.5
	c-5.7,5.6-11.8,11.2-16.8,17.5c2.1-8.5,5.9-16.6,9.5-24.5c3.9-8.6,7.7-17.3,13-25c5.4-7.7,11.9-14.2,19.6-19.1
	c5.1-3.2,12.1-7,13.2-14c0.4-2.2-1.5-3.7-3.4-2.8c-20.5,9.9-40.3,21.5-57.7,36.9c-14.6,13-26.8,28.5-37.1,45.6
	c-1-6.8-4.5-13.4-8.2-18.8c-5.9-8.5-14-16.8-23.6-19.8c-1.7-0.5-3.3,1.3-2.9,3.1c3.1,12.2,10.9,24.4,9.6,37.3
	c-21.7-25.9-56.9-38.3-88.4-30.8c-2.6,0.6-1.9,4.8,0.6,4.9c19.3,0.6,41.6,11.3,50.7,30.7c-13.3,0.2-26.6,0-39.9,1.4
	c-8.6,0.9-17.8,1.1-26.1-2.2c-26.3-10.5,3.6-40.1,7-56.4c0.3-1.5-0.6-3.3-2.2-3.2c-5.9,0.6-10.1,3.9-13.8,8.8
	c-4.7,6.1-9.2,12.4-14.2,18.3c-5.1,6.1-10,12.2-13.4,19.6c-2.5,5.5-4.4,11.3-5.7,17.3c-3.9-2.2-8.1-2-12.4-0.8
	c4.6-12.8,8.1-26.2,14.7-38c7.7-13.9,19.8-24.1,29.6-36c1.5-1.8,0.1-4.9-2.2-4.2c-21.1,6.5-40.7,20.4-56.8,36.4
	c-7.9,7.9-15.3,16.8-20.5,27c-2.3,4.7-2.8,10.2-5.1,14.7c-2.4,4.6-7.7,4.3-12.2,5.1c-4.5-0.8-9.8-0.5-12.2-5.1
	c-2.4-4.5-2.8-10.1-5.2-14.7c-5.2-10.3-12.6-19.2-20.5-27c-16.1-16-35.8-29.9-56.9-36.4c-2.3-0.7-3.7,2.4-2.2,4.2
	c9.9,12,22,22.1,29.7,36c6.6,11.8,10.2,25.2,14.8,38c-4.4-1.2-8.5-1.4-12.4,0.8c-1.4-6-3.2-11.8-5.7-17.3
	c-3.4-7.4-8.4-13.5-13.5-19.6c-4.9-6-9.4-12.2-14.2-18.3c-3.7-4.8-8-8.2-13.9-8.8c-1.6-0.2-2.5,1.7-2.2,3.2
	c3.4,16.3,33.3,45.9,7,56.4c-8.3,3.3-17.5,3.1-26.1,2.2c-13.2-1.4-26.7-1.2-40-1.4c9.2-19.4,31.5-30.1,50.8-30.7
	c2.5-0.1,3.2-4.3,0.6-4.9c-31.6-7.4-66.9,5-88.6,30.8c-1.3-12.9,6.5-25.1,9.7-37.3c0.5-1.8-1.1-3.6-2.9-3.1
	c-9.6,3-17.8,11.3-23.7,19.8c-3.7,5.3-7.2,11.9-8.2,18.8c-10.2-17.1-22.5-32.6-37.2-45.6c-17.4-15.4-37.3-27-57.8-36.9
	c-1.9-0.9-3.8,0.6-3.4,2.8c1.1,6.9,8.2,10.7,13.3,14c7.7,4.9,14.3,11.4,19.7,19.1c5.4,7.7,9.2,16.4,13.1,25c3.5,7.9,7.4,16,9.5,24.5
	c-5.1-6.4-11.1-11.9-16.8-17.5c-6-5.9-12.9-11-19.8-15.5c-13.1-8.4-31.6-18.2-46.9-11.1c-1.4,0.7-1.4,2.9-0.5,3.9
	c12.9,13.6,38.1,26.4,39.4,48.2c-7.9-3.5-17.9-8.4-25.5-4.6c-2.9,1.4-5.1,3.6-8.2,4.4c-2.3,0.6-4.7,1-7,1.3
	c-6.1,1-12.3,1.7-18.5,1.8c-5.6,0.1-11.4-0.1-15.8-4c-3-2.6-4.9-6-8.8-7.2c-4.4-1.4-9.6-0.2-13.7,1.9c-4,2-7.1,3.9-11,4.7
	c-0.5-0.8-1.4-1.3-2.5-1.2c-1.7,0.3-2.8,1-4,2.3c-0.2,0.2-0.3,0.3-0.4,0.5c-3.3,2.1-7.5,4.2-10,2.6c-2.6-1.7-1.3-6.9-0.7-9.4
	c2.2-9.2,7.5-19.5,14.6-25.4c1.7-1.4,1.4-3.7-0.6-4.6c-16.3-7.1-31,10.4-38.3,26.5c-2.2-9-8.1-17.1-14-23.6
	c-8.1-8.9-17.6-15.9-27.5-22.1c-10.1-6.3-20.5-12.2-31.4-16.8c-9.3-3.9-21-8.1-30.9-4.4c-2.2,0.8-2.2,4,0,4.8
	c18.9,7.2,37.5,15.9,50.2,33.3c4.9,6.8,9.3,14.1,13,21.8c2.5,5.5,6.3,13.9,4.7,20.4c-6.1-2.2-11.3-7.2-18.1-5.7
	c-2.5,0.6-4.4,2-6.6,3.5c-3.4,2.3-5.6,0.5-8.7-2c-1.1-0.9-2.5-0.1-3.1,0.9c-2.5,3.6-6,6.6-9.6,2.9c-2.6-2.6-4-7.4-3.9-11.2
	c0.2-3.9,1.9-8,3.3-11.5c1.9-4.9,4-9.7,5.8-14.6c1-2.6,2.9-6,2.6-9c-0.6-7.8-10-4.6-13.9-2.3c-6.4,3.9-12.1,9.5-17.3,15.1
	c-7.5,8-12.2,17.5-12.7,28.1c-9.6-15.5-22-27.9-40.7-29.1c-1.8-0.1-2.8,2.2-2,3.8c4.2,7.9,9.5,15,13.2,23.3c1.4,3.1,4.3,9.5,2,12.9
	c-2,3.1-7.7-1.1-10.2-2.3c-2.8-1.3-7-4-10.3-2.9c-1.9,0.7-2.1,2.4-3.4,3.6c-1.4,1.3,0.1,1.1-1.9,0.7c-1.6-0.3-3-1.7-4.4-2.4
	c-4.3-2.1-9.3-1.4-13.7-3c-5.1-1.9-4.1-7-2.9-11.7c4.1-16.2,18.1-23.2,28.3-34.3c1.7-1.8,0-4.7-2.2-4.2
	c-27.6,6.4-47.3,27.5-64.1,50.6c-2-6.2-3.7-12.5-6.1-18.6c-2.9-7-7-12.4-11.7-18.1c-8.2-10.2-17.5-22.5-29.5-27.5
	c-1.7-0.7-3.2,1.4-2.9,3.1c4.4,17.8,15.7,35.2,13.4,53.3c-3-12.4-12.3-24-19.9-32.2c-11.3-12.1-27.5-26.5-44.2-27.4
	c-1.7-0.1-3.1,2.2-2,3.8c7.7,10.9,16.1,21.3,22.6,33.2c6.3,11.6,12.3,27,4.9,39.3c-3.2-3-6.6-6.3-10.6-7.8c-5-1.9-8.2,0.8-12.2,3.9
	c-5.3,4.2-10.7,1.2-16.5,0.1c-3.9-0.8-7.3-0.2-10.6,1.4c-0.9-17.4,12-32,18-47.3c0.7-1.8-1.3-3.6-2.9-3.1
	c-21.2,6.9-34.2,27.4-46,46.4c-7.2-16.3-19.8-29.4-33.2-40C52.6,46.7,35.2,36.9,16.8,32.9c-2.1-0.5-4,2.3-2.2,4.2
	c9.7,10.2,19.2,20.8,27.3,32.6c7.1,10.2,16.1,24,15.3,37.6c-4.5-1.7-9.7-2-14.4-2.3c-3.8-0.3-7.6-0.4-11.3-0.5
	c-3.1-0.1-6.7-0.7-9.6,0c-2.1,0.5-3.2,1.5-5.6,1.5c-2.8,0-3.9-1.6-6.4-2.6c-2.6-1-5.6-2-8.2-2.8c-0.5-0.1-0.8-0.2-1.2-0.3v5.2
	c0.2,0,0.3,0,0.5,0.1c1.9,0.6,3.7,1.4,5.6,2.1c2.6,0.8,4.6,2.7,7.2,3.6c2,0.8,3.6,0.4,5.6-0.3c3.1-1.1,4.7-1.6,8-1.5
	c5.2,0.1,10.3,0.2,15.5,0.5c4.9,0.3,10.6,0.5,15.2,3c1.2,0.7,3.1,0.2,3.4-1.5c2.5-15.2-5.9-30.2-13.8-42
	c-7.1-10.6-15.3-20.4-23.8-29.7c14,4.5,27.1,12.1,39,21.1c14.4,11,28.7,25.3,35.4,43.4c0.7,2,3.1,2.5,4.3,0.6
	c10.7-17.4,22.2-37.5,40.5-46c-7.2,15.5-18.3,29.6-15.5,48.1c0.3,1.6,2.2,2.3,3.4,1.5c5-3.3,8.8-3.1,14.3-1.6c3.6,1,7.6,1.9,11.3,1
	c3.6-0.9,5.7-4.6,9.1-6c5.4-2.3,11.1,5.1,14.8,8.3c0.9,0.8,2.4,1.1,3.2,0c18.1-24.5-7-55.4-22.2-75.9c13.1,3.2,25.7,14.8,34.7,24.2
	c9.6,10.2,23.9,27.3,19.7,43.2c-0.7,2.7,3,4.4,4.3,1.9c5.8-10.9,6.6-22.5,3.4-34.5c-2.8-10.5-7.5-20.1-10.7-30.3
	c9.1,5.5,16.6,15.8,23.1,23.9c4.5,5.6,8.6,11.1,11.3,18c2.6,6.8,4.3,13.9,6.8,20.8c0.7,2.1,3,2.4,4.3,0.6
	c14.8-20.7,31.7-40.4,54.6-49.2c-8.9,7.9-18.1,15.1-21.8,27.8c-1.4,4.7-2.9,11,0.1,15.5c2.6,4,7.7,4.7,11.8,5.3
	c3.4,0.5,6.1,1.1,9.2,2.8c2.1,1.1,4.9,2.8,7.3,1.5c1.9-1,2.2-4.3,4.3-4.5c2.3-0.2,6.3,2.6,8.3,3.5c3.2,1.5,7.6,4.5,11.1,2.4
	c3.6-2.2,4.4-6.9,3.9-11.1c-1.4-10.9-8.3-19.9-13.9-29c17.8,3.2,28.7,18.7,37.5,35.1c1.3,2.5,4.8,0.8,4.3-1.9
	c-3.7-16.8,4.9-29.2,16-39.7c3.8-3.6,8-7.5,12.6-9.8c0.9-0.5,4.4-2.2,5.3-0.9c0.5,0.7-1.4,4.6-1.6,5.3c-3.5,9.5-10.6,20.6-10.1,31.2
	c0.3,5.9,3.1,13,8.3,15.6c4.9,2.4,9.1-0.4,12.2-4.2c4.3,3,7.8,3.6,12.5,0.2c8.2-5.9,14.3,1.9,22.5,3.8c0.9,0.2,2.1-0.1,2.6-1.2
	c3.1-7,0.8-15-1.8-21.7c-3.6-9.3-8.7-18-14.3-26c-11.6-16.5-27.7-26-45-33.4c6.8,0.4,13.7,3.2,19.5,5.6c10.2,4.2,19.9,9.8,29.4,15.7
	c8.8,5.9,17.5,12.1,25.1,19.9c8.4,8.6,17,20.1,15.5,33.4c-0.3,2.9,3.9,3.3,4.5,0.7c3.6-13.8,16.8-36.9,32.3-34.6
	c-7.2,7.7-13,19.1-14,29.5c-0.4,4.2,0.3,9.1,4.4,10.9c4.6,2.1,10.2-0.7,14.7-3.5c4.8,0.1,9.1-1.2,13.4-3.7
	c4.4-2.6,10.6-5.8,15.5-2.7c3.5,2.2,5.6,6.2,9.3,8.2c4.2,2.2,9,2.5,13.6,2.5c5.7,0,11.5-0.6,17.1-1.4c4.4-0.6,9.2-1,13.2-2.7
	c3.1-1.3,5.6-4,8.9-4.6c2.7-0.5,5.4,0.4,8,1.2c5.2,1.6,10.2,3.7,15.2,5.7c1.5,0.6,2.9-0.9,3-2.4c1.6-24.6-23-38.3-38-52.7
	c13.7-3.7,30.5,6.5,41.3,13.8c6,4,11.8,8.4,16.9,13.5c7.8,7.6,16.2,15.1,21.8,24.9c1.1,2,4.5,1.3,4.4-1.3
	c-0.7-10.8-4.6-20.7-8.9-30.4c-4.2-9.4-8.1-19.1-13.5-27.8c-4.8-7.8-10.7-14.8-17.7-20.4c-3.3-2.7-9.3-5.2-13.2-8.7
	c17.5,8.9,34.3,19.2,49.3,32.4c16.8,14.9,30.5,33.1,41.5,53.5c1.3,2.4,5.2,0.8,4.3-1.9c-3.1-9.2,2.2-19.3,7.4-26.3
	c4.3-5.9,9.7-11.7,16.1-15.1C750,63.8,743,76.4,747,90.6c0.5,1.6,2.7,2.6,3.9,1.1c16.8-22.3,43.7-35.5,70.3-35.3
	c-16.9,5.2-32.6,16.9-39.2,34.5c-0.6,1.6,0.9,3.1,2.2,3.2c15.8,0.3,31.5,0.6,47.2,1.8c9.3,0.7,20,0.1,28.3-5
	c8.7-5.3,11.6-15.4,8.4-25.4c-3.4-11.2-11.9-19.9-15.7-30.8c4.7,2.1,7.8,7.1,10.8,11.4c3.7,5.2,7.8,9.9,11.8,14.8
	c9,10.9,14.7,22.3,17.6,36.7c0.4,1.9,2.7,2.3,3.9,1.1c4.5-4.6,10.4-2.4,15.6-0.4c2.1,0.8,3.3-1.9,2.6-3.7
	c-5.8-14.8-9.5-30.9-17.6-44.7c-6.3-10.7-15-19.3-23.1-28.3c19,7.8,36.7,21.3,50.6,36.6c7.7,8.3,15.1,17.9,18.2,29.4
	c1.2,4.3,2.6,9.2,6.4,11.6c3.6,2.3,8.1,1.8,12.1,2.9c4-1.1,8.5-0.6,12.1-2.9c3.8-2.4,5.2-7.3,6.4-11.6c3.1-11.5,10.5-21,18.1-29.4
	c14-15.3,31.7-28.8,50.5-36.6c-8.1,9-16.8,17.6-23.1,28.3c-8.1,13.7-11.7,29.8-17.5,44.7c-0.7,1.8,0.5,4.5,2.6,3.7
	c5.2-1.9,11-4.2,15.6,0.4c1.2,1.2,3.5,0.8,3.9-1.1c2.9-14.4,8.5-25.7,17.6-36.7c4-4.9,8.1-9.6,11.8-14.8c3.1-4.3,6.1-9.4,10.8-11.4
	c-3.7,11-12.2,19.7-15.6,30.8c-3.1,10-0.2,20.2,8.4,25.4c8.3,5.1,18.9,5.7,28.2,5c15.7-1.2,31.3-1.4,47.1-1.8c1.4,0,2.8-1.6,2.2-3.2
	c-6.7-17.6-22.2-29.4-39.2-34.5c26.6-0.2,53.4,13,70.1,35.3c1.1,1.5,3.4,0.5,3.9-1.1c4-14.2-3.1-26.9-7.3-39.9
	c6.4,3.3,11.8,9.2,16.1,15.1c5.2,7.1,10.5,17.1,7.3,26.3c-0.9,2.7,3,4.3,4.3,1.9c10.9-20.3,24.6-38.5,41.4-53.5
	c14.9-13.2,31.8-23.5,49.2-32.4c-4,3.5-9.9,6-13.2,8.7c-6.9,5.7-12.9,12.6-17.6,20.4c-5.4,8.7-9.3,18.4-13.5,27.8
	c-4.3,9.7-8.1,19.6-8.9,30.4c-0.2,2.6,3.1,3.2,4.3,1.3c5.6-9.8,14-17.2,21.8-24.9c5.2-5.1,10.9-9.6,16.9-13.5
	c10.8-7.3,27.6-17.5,41.2-13.8c-15.1,14.4-39.5,28.1-38,52.7c0.1,1.5,1.4,3,3,2.4c5-2.1,10-4.2,15.1-5.7c2.6-0.8,5.3-1.7,8-1.2
	c3.3,0.6,5.7,3.4,8.8,4.6c4.1,1.7,8.9,2.1,13.2,2.7c5.6,0.8,11.4,1.4,17.1,1.4c4.5,0,9.3-0.3,13.5-2.5c3.8-2,5.8-6,9.3-8.2
	c4.9-3.1,11,0.2,15.5,2.7c4.4,2.5,8.5,3.7,13.3,3.7c4.4,2.8,10,5.5,14.6,3.5c4.1-1.8,4.7-6.7,4.4-10.9c-1-10.4-6.8-21.8-13.9-29.5
	c15.6-2.2,28.6,20.8,32.2,34.6c0.6,2.6,4.8,2.2,4.5-0.7c-1.5-13.3,7.1-24.7,15.5-33.4c7.6-7.8,16.3-14.1,25.4-19.7
	c9.4-5.9,19.2-11.5,29.3-15.7c5.8-2.5,12.8-5.2,19.5-5.6c-17.3,7.4-33.2,16.9-44.9,33.4c-5.6,8-10.7,16.7-14.3,26
	c-2.6,6.7-4.8,14.8-1.8,21.7c0.5,1,1.7,1.4,2.6,1.2c8.1-1.9,14.3-9.7,22.4-3.8c4.6,3.3,8.1,2.8,12.4-0.2c3.1,3.8,7.3,6.6,12.2,4.2
	c5.3-2.6,8-9.7,8.3-15.6c0.6-10.5-6.6-21.7-10.1-31.2c-0.3-0.7-2-4.6-1.6-5.3c0.9-1.2,4.3,0.5,5.2,0.9c4.6,2.3,8.8,6.2,12.6,9.8
	c11.1,10.6,19.6,22.9,15.9,39.7c-0.6,2.7,2.9,4.4,4.3,1.9c8.7-16.5,19.6-31.9,37.4-35.1c-5.5,9.1-12.4,18.2-13.8,29
	c-0.6,4.1,0.3,8.8,3.9,11.1c3.4,2.2,7.8-0.9,11-2.4c1.9-0.9,6-3.7,8.3-3.5c2,0.2,2.4,3.5,4.3,4.5c2.3,1.3,5.2-0.4,7.3-1.5
	c3.1-1.7,5.7-2.3,9.2-2.8c4.2-0.6,9.2-1.3,11.8-5.3c2.9-4.4,1.4-10.7,0.1-15.5c-3.6-12.7-12.9-19.9-21.7-27.8
	c22.9,8.8,39.7,28.5,54.4,49.2c1.2,1.8,3.4,1.5,4.2-0.6c2.5-6.8,4.2-14,6.8-20.8c2.7-7,6.8-12.4,11.2-18c6.6-8.1,14-18.4,23-23.9
	c-3.2,10.3-8,19.9-10.7,30.3c-3.1,12-2.4,23.6,3.4,34.5c1.3,2.5,4.9,0.8,4.3-1.9c-4.2-15.9,10.1-33,19.6-43.1
	c8.9-9.4,21.5-21,34.6-24.2c-15.1,20.4-40.3,51.4-22.1,75.9c0.8,1.1,2.4,0.8,3.2,0c3.7-3.2,9.4-10.6,14.8-8.3c3.3,1.4,5.4,5.1,9.1,6
	s7.7,0,11.2-1c5.4-1.4,9.3-1.7,14.3,1.6c1.2,0.8,3.1,0.1,3.4-1.5c2.9-18.5-8.2-32.6-15.4-48.1c18.3,8.6,29.7,28.7,40.5,46
	c1.2,1.9,3.5,1.4,4.3-0.6c6.7-18.1,20.9-32.4,35.3-43.4c11.8-9,24.9-16.7,38.9-21.1c-8.5,9.3-16.7,19-23.7,29.7
	c-7.9,11.8-16.3,26.8-13.8,42c0.3,1.7,2.2,2.2,3.4,1.5c4.4-2.5,10.2-2.7,15.1-3c5.1-0.3,10.3-0.4,15.5-0.5c3.2-0.1,4.7,0.4,7.9,1.5
	c2,0.7,3.5,1.1,5.6,0.3c2.5-0.9,4.6-2.8,7.2-3.6c1.9-0.6,3.7-1.5,5.6-2.1c0.2,0,0.3-0.1,0.5-0.1v-5.2
	C1919.3,100.5,1918.9,100.6,1918.4,100.7z"/>
<path d="M38.7,52.7c5.7,3.9,11.4,8,16.2,13.2c4.7,5.1,8.6,11.4,9.2,18.7c0.1,1.6,2.4,1.6,2.3,0C65.4,72.1,56.5,63,47.7,56.1
	c-2.5-2-5.1-3.8-7.8-5.6C38.6,49.7,37.5,51.9,38.7,52.7L38.7,52.7z"/>
<path d="M179.4,52.7c4.4,3,8.1,7,10.7,11.9c2.6,4.8,4.2,10,5.4,15.3c0.4,1.6,2.6,0.9,2.2-0.7c-1.3-5.6-3.1-11.2-5.7-16.2
	c-2.9-5.1-6.8-9.3-11.4-12.5C179.3,49.7,178.2,51.9,179.4,52.7L179.4,52.7z"/>
<path d="M118.2,94c1-3.8,3.2-7.2,5.5-10.3c2.3-3.2,4.8-6.1,7.2-9.2c0.9-1.2-0.6-3-1.7-1.8c-2.5,3.3-5.2,6.4-7.6,9.7
	c-2.3,3.3-4.5,6.8-5.6,10.8C115.5,94.9,117.7,95.5,118.2,94L118.2,94z"/>
<path d="M224.6,58.5c6.8,7.7,9.7,17.7,9.8,28.1c0,1.6,2.3,1.6,2.3,0c-0.1-11.1-3.3-21.7-10.6-29.9C225.1,55.6,223.5,57.4,224.6,58.5
	L224.6,58.5z"/>
<path d="M290.5,70.6c-6.1,4.1-10.8,11.2-12.6,18.7c-0.4,1.6,1.9,2.2,2.2,0.7c1.6-6.9,5.9-13.5,11.5-17.3
	C293,71.9,291.8,69.7,290.5,70.6L290.5,70.6z"/>
<path d="M345.1,80.7c3.1,2.4,5.8,5.4,7.7,9c1.9,3.5,3,7.3,3.8,11.2c0.4,1.6,2.6,0.9,2.2-0.7c-0.9-4.2-2.1-8.4-4.2-12.1
	c-2.1-3.9-5.1-7-8.4-9.7C345.1,77.6,344,79.8,345.1,80.7L345.1,80.7z"/>
<path d="M386.6,91.3c-3.1-8.2,2-16.6,6.4-23c0.9-1.3-1.1-2.5-2-1.3c-4.7,7-9.9,16.1-6.6,25C385,93.5,387.2,92.8,386.6,91.3
	L386.6,91.3z"/>
<path d="M450.6,55.7c4.3,3,7.5,7.1,10,11.8c2.3,4.4,4.1,9.2,6.3,13.7c0.6,1.4,2.7,0.2,2-1.3c-2.3-4.7-4.1-9.7-6.6-14.4
	c-2.6-4.9-6.1-9-10.5-12.1C450.6,52.7,449.4,54.9,450.6,55.7L450.6,55.7z"/>
<path d="M505.8,73c-2.2,5.3-5.7,9.8-7.5,15.3c-0.5,1.5,1.8,2.2,2.2,0.7c1.7-5.3,5.1-9.6,7.3-14.7c0.3-0.6,0.2-1.3-0.4-1.7
	C506.9,72.3,506.1,72.4,505.8,73L505.8,73z"/>
<path d="M633.9,60.7c7.8,5.5,14.4,12.5,20,20.6c0.9,1.3,2.9,0,2-1.3c-5.8-8.4-12.7-15.7-20.7-21.4C633.9,57.7,632.7,59.9,633.9,60.7
	L633.9,60.7z"/>
<path d="M683,50.7c4.1,2.9,7.9,6.6,10.9,10.7c2.8,3.7,5.6,9.1,2.5,13.6c-0.9,1.3,1.1,2.5,2,1.3c3.5-5,0.9-11.2-2.1-15.6
	c-3.3-4.7-7.6-8.8-12.1-12.1C683,47.7,681.7,49.8,683,50.7L683,50.7z"/>
<path d="M744.8,61.8c-6.9,6.1-8.4,17.4-5.8,26.2c0.5,1.5,2.7,0.9,2.2-0.7c-2.4-8.1-1.1-18.2,5.3-23.8
	C747.6,62.5,745.9,60.8,744.8,61.8L744.8,61.8z"/>
<path d="M786,67.5c-4.9,2-8.9,6.4-11.8,11c-2.7,4.4-5.1,10.1-3.8,15.5c0.4,1.6,2.6,0.9,2.2-0.7c-1.1-4.7,1.2-9.8,3.6-13.6
	c2.5-4,6.1-8.2,10.4-9.9C788,69.3,787.5,66.9,786,67.5L786,67.5z"/>
<path d="M877.2,78.3c-1-6.6-3.8-12.6-5.6-19c-0.5-1.5-2.7-0.9-2.2,0.7c1.8,6.4,4.5,12.4,5.6,19C875.2,80.6,877.4,79.9,877.2,78.3
	L877.2,78.3z"/>
<path d="M922.6,73.3C919.9,62,908.1,57.8,902.1,49c-0.8-1.3-2.9,0-2,1.3c3,4.5,7.2,7.7,11.1,11.1c3.8,3.4,7.9,7.2,9.1,12.6
	C920.8,75.5,923,74.9,922.6,73.3L922.6,73.3z"/>
<path d="M71.4,104c4.3,4.6,8.1,9.6,13.1,13.2c1.2,0.9,2.5-0.3,2.6-1.6c0.5-4,0.7-8,0.4-12c-0.5-4.2-1.6-8.1-3.1-11.9
	c-0.9-2.2-4-0.3-3,1.9c1.5,3.4,2.5,7,2.8,10.7c0.3,3.8,0,7.5-0.4,11.3c0.8-0.5,1.8-1.1,2.6-1.6c-4.7-3.5-8.4-8.3-12.4-12.6
	C72.3,99.6,69.8,102.3,71.4,104L71.4,104z"/>
<path d="M111.7,103.2c-1.4,4.6-3.3,9.2-2.8,14.2c0.1,1.1,1,2.2,2.2,1.8c3.7-1.3,7-3.4,9.9-6.2c0.7-0.7,0.6-2,0-2.7
	c-0.7-0.8-1.8-0.7-2.5,0c-2.4,2.3-5.4,4.1-8.4,5.2c0.7,0.6,1.5,1.2,2.2,1.8c-0.6-4.6,1.3-8.9,2.6-13.2c0.3-1-0.4-2-1.2-2.3
	C112.8,101.6,112,102.2,111.7,103.2L111.7,103.2z"/>
<path d="M146.9,116.2c0.6,4.6,3.2,8.6,7.8,9.2c0.9,0.1,1.9-0.2,2.1-1.3c0.3-1.6,1.4-2.9,1.8-4.6c-0.9,0.3-1.9,0.6-2.9,0.8
	c2.4,2.7,5.7,5.1,9.3,4.9c3.9-0.2,6.4-3.3,7.5-7.1c0.6-2.3-2.7-3.3-3.3-1c-0.7,2.4-2.1,4.4-4.6,4.3c-2.5-0.1-4.8-1.9-6.5-3.8
	c-0.8-1-2.7-0.6-2.9,0.8c-0.3,1.6-1.4,3-1.8,4.6c0.7-0.4,1.4-0.9,2.1-1.3c-1.5-0.2-2.8-0.7-3.8-2c-0.9-1.3-1.4-3-1.6-4.6
	c-0.2-1-1.3-1.6-2.1-1.3C147.1,114.1,146.7,115.2,146.9,116.2L146.9,116.2z"/>
<path d="M194.3,86.6c3.2,6.2,3.9,13.6,7.4,19.7c0.6,1.1,1.9,1.2,2.7,0.4c3.7-3.6,4.7-8.9,4.2-14c-0.1-1-0.7-1.9-1.8-1.9
	c-0.8,0-1.9,0.9-1.8,1.9c0.4,4.2-0.1,8.4-3.1,11.4c0.9,0.1,1.9,0.3,2.7,0.4c-3.5-6.1-4.2-13.5-7.4-19.7
	C196.1,82.6,193.2,84.5,194.3,86.6L194.3,86.6z"/>
<path d="M231.5,96c1.6,1.9,3.2,3.9,4.6,5.8c1.3,1.9,2.6,4.1,3.2,6.3c0.4,1.1,1.6,1.8,2.6,1.1c4.7-3.1,3.9-9.5,3.7-14.5
	c0-1-0.7-1.9-1.8-1.9c-0.9,0-1.8,0.9-1.8,1.9c0.1,2.3,0.3,4.7,0.1,7c0,0.1,0,0.2,0,0.3c-0.1,0.5,0-0.2,0,0.1c0,0.3-0.1,0.5-0.2,0.8
	s-0.1,0.5-0.2,0.8c0,0.1-0.1,0.3-0.1,0.4c0.1-0.2,0.1-0.2,0,0s-0.2,0.5-0.4,0.7c0,0-0.3,0.4-0.1,0.2c0.1-0.2-0.2,0.2-0.2,0.2
	c-0.2,0.2-0.3,0.3-0.5,0.5c-0.1,0.1-0.3,0.2-0.1,0.1c-0.1,0.1-0.3,0.2-0.4,0.3c0.8,0.4,1.7,0.7,2.6,1.1c-1.6-5.5-5.4-9.5-8.7-13.7
	c-0.6-0.8-1.9-0.7-2.5,0C230.9,94.1,231,95.2,231.5,96L231.5,96z"/>
<path d="M270.9,97.2c-1.4,6-1.1,12.2-0.8,18.4c0.1,1.3,1,2,2.2,1.8c5-0.8,9.5-4.2,12.7-8.3c0.6-0.8,0.7-1.9,0-2.7
	c-0.6-0.7-1.9-0.8-2.5,0c-2.8,3.8-6.7,6.7-11.1,7.4c0.7,0.6,1.5,1.2,2.2,1.8c-0.2-5.8-0.6-11.7,0.7-17.4
	C274.8,95.8,271.5,94.8,270.9,97.2L270.9,97.2z"/>
<path d="M358.9,108.2c1.1,3.1,3.1,6,5.7,7.8c2.9,2.1,6.1,1.3,7.8-2c-0.8,0.2-1.6,0.4-2.4,0.7c2.7,2.1,6.6,5.1,9.9,2.7
	c1.2-0.9,2.1-2.2,3-3.5c1.2-1.7,2.4-3.4,3.9-4.9c1.6-1.7-0.8-4.3-2.5-2.7c-1.4,1.4-2.5,3-3.7,4.6c-0.7,1.1-1.4,2.2-2.3,3.1
	c-0.3,0.3-0.4,0.4-0.7,0.5c-0.3,0.1-0.5,0.1-0.9,0c-1.9-0.5-3.4-1.9-4.9-3c-0.7-0.6-1.9-0.1-2.4,0.7c-0.2,0.4-0.5,0.9-0.7,1.1
	s-0.4,0.3-0.7,0.2c-0.6-0.1-1.4-0.6-1.9-1.1c-1.5-1.3-3-3.4-3.7-5.2c-0.4-0.9-1.1-1.6-2.1-1.3C359.2,106.1,358.5,107.2,358.9,108.2
	L358.9,108.2z"/>
<path d="M461.8,93.6c1.2,2.6,2.5,5.2,4,7.6c0.7,1.3,1.7,2.8,3,3.6c3.2,1.9,4.9-2.6,5.7-5.1c0.8-2.5,1.7-5.1,2.5-7.6
	c0.3-1-0.4-2.1-1.2-2.3c-0.9-0.3-1.9,0.4-2.1,1.3c-0.7,2.1-1.4,4.3-2.1,6.5c-0.3,0.8-0.5,1.6-0.8,2.4c0.3-0.5,0,0-0.1,0.1
	c-0.1,0.1-0.1,0.3-0.2,0.4c-0.1,0.3-0.3,0.5-0.4,0.7c-0.1,0.1-0.1,0.2-0.2,0.3c-0.1,0.2,0.2-0.2,0.2-0.2l-0.1,0.1
	c-0.1,0.1-0.1,0.1-0.2,0.2c-0.2,0.2,0.5-0.3,0.1-0.1c-0.4,0.2,0.4-0.1,0.2-0.1c-0.3,0.1,0.3,0,0.3,0c-0.4,0,0.1,0,0.2,0.1h-0.1
	c-0.2-0.1,0.1-0.1,0.2,0.1c0,0-0.2-0.1-0.3-0.1c-0.3-0.2,0,0,0.1,0.1c-0.2-0.2-0.4-0.4-0.6-0.6c-0.1-0.1-0.2-0.2-0.3-0.4
	c-0.3-0.4,0.2,0.3-0.1-0.1c-0.3-0.4-0.5-0.7-0.7-1.1c-1.5-2.5-2.8-5.1-4-7.8c-0.5-0.9-1.6-1.2-2.4-0.7
	C461.5,91.6,461.3,92.7,461.8,93.6L461.8,93.6z"/>
<path d="M491.4,105.6c1.1,2,2,4.1,3.1,6c1.3,2.1,2.9,3.8,5.1,4.8c0.6,0.3,1.7-0.2,1.9-0.9c1.6-3.7,1.4-7.8,1.3-11.9
	c0-1-0.7-1.9-1.8-1.9c-0.9,0-1.8,0.8-1.8,1.9c0,1.8,0.1,3.7,0,5.6c0,0.4-0.1,0.9-0.1,1.3c0,0.1,0,0.2,0,0.3c0-0.2,0-0.2,0,0
	s-0.1,0.4-0.1,0.6c-0.1,0.4-0.2,0.8-0.3,1.2c-0.1,0.2-0.1,0.4-0.2,0.6c-0.1,0.2-0.1,0.2,0,0.1c0,0.1-0.1,0.2-0.1,0.3
	c0.6-0.3,1.3-0.6,1.9-0.9c0.4,0.2,0,0,0,0c-0.1-0.1-0.2-0.1-0.3-0.2c-0.2-0.1-0.4-0.2-0.6-0.4c-0.1-0.1-0.2-0.1-0.3-0.2
	c-0.2-0.1,0.2,0.2,0,0s-0.4-0.3-0.5-0.5c-0.2-0.2-0.3-0.4-0.5-0.5c-0.1-0.1-0.2-0.2-0.2-0.3c-0.1-0.1-0.3-0.4,0,0
	c-0.3-0.4-0.6-0.8-0.8-1.3c-1-1.8-1.9-3.8-3-5.6c-0.5-0.8-1.6-1.2-2.4-0.7C491.2,103.6,490.9,104.7,491.4,105.6L491.4,105.6z"/>
<path d="M538.5,101.2c-0.6,4.4,2,7.8,5.5,9.9c0.6,0.4,1.6,0.3,2.1-0.3c0.8-1,1.9-1.7,2.8-2.7c-0.8,0-1.7,0-2.5,0
	c2.2,2.5,5.8,5.1,9.1,3.1c2.6-1.7,3.4-5.4,3.1-8.4c-0.1-1-0.7-1.9-1.8-1.9c-0.8,0-1.9,0.9-1.8,1.9c0.1,1.3,0.1,2.2-0.3,3.3
	c-0.2,0.6-0.2,0.6-0.5,1.2c-0.1,0.1-0.2,0.3-0.1,0.1c-0.1,0.1-0.1,0.2-0.2,0.3c-0.1,0.1-0.2,0.2-0.2,0.2c-0.3,0.2,0.1-0.1-0.1,0.1
	c-0.1,0.1-0.2,0.1-0.3,0.2c-0.2,0.1,0.3-0.1,0,0c-0.1,0-0.7,0.2-0.4,0.1c-0.6,0.1-0.6,0-1.1-0.1c-1.1-0.4-2.3-1.5-3.2-2.6
	c-0.6-0.7-1.9-0.7-2.5,0c-0.8,1-1.9,1.7-2.8,2.7c0.7-0.1,1.4-0.2,2.1-0.3c-1.9-1.1-4.2-3.2-3.8-5.6c0.2-1-0.3-2-1.2-2.3
	C539.8,99.6,538.5,100.2,538.5,101.2L538.5,101.2z"/>
<path d="M649,92c3.4,3.5,7,7.1,11,9.7c1.7,1.1,3.5,2.2,5.5,2.2c2,0.1,3.6-1.4,4.2-3.5c0.4-1.4,0.3-2.9,0.2-4.3
	c-0.2-2.4-0.7-4.7-1.3-6.9c-0.6-2.3-4-1.3-3.3,1c0.5,1.9,0.9,3.7,1.1,5.7c0-0.3,0,0.1,0,0.2c0,0.2,0,0.3,0,0.5c0,0.3,0,0.6,0.1,1
	c0,0.3,0,0.6,0,0.9c0,0.2-0.1,1,0,0.4c-0.1,0.4-0.2,0.8-0.3,1.2c0.2-0.6,0-0.1-0.1,0.1c-0.1,0.2-0.3,0.2,0.1-0.1
	c-0.1,0.1-0.1,0.1-0.2,0.2c-0.4,0.3,0.3-0.3,0,0c-0.1,0.1-0.1,0.1-0.2,0.1c0.1,0,0.4-0.1,0.2-0.1c-0.2,0-0.6,0,0,0.1
	c-0.2,0-0.3,0-0.5,0c-0.2,0-0.6-0.1-0.1,0c-0.2,0-0.4-0.1-0.6-0.1c-0.4-0.1-0.7-0.2-1.1-0.4c0.6,0.2-0.2-0.1-0.3-0.2
	c-0.2-0.1-0.4-0.2-0.6-0.3c-0.5-0.3-0.9-0.5-1.3-0.8c-0.9-0.6-1.8-1.2-2.6-1.9c-0.2-0.2-0.4-0.3-0.6-0.5c0.3,0.3-0.1-0.1-0.1-0.1
	c-0.1-0.1-0.3-0.2-0.4-0.3c-0.5-0.4-0.8-0.8-1.3-1.1c-1.9-1.6-3.6-3.4-5.3-5.1C649.8,87.7,647.4,90.3,649,92L649,92z"/>
<path d="M695.1,83.6c0,0.1,0.3,0.7,0.2,0.4c0.1,0.2,0.2,0.5,0.3,0.7c0.1,0.4,0.3,0.8,0.4,1.3c0.2,0.9,0.4,1.9,0.6,2.8
	c0.3,1.9,0.5,3.8,1,5.7c0.5,1.9,1.2,3.7,2.5,5.1c1.4,1.6,3.4,2.5,5.5,2.8c1,0.2,1.8-0.3,2.1-1.3c0.7-2.3,2.2-4.1,3.2-6.2
	c1.3-2.4,1.9-4.9,1.5-7.7c-0.1-1-1.3-1.6-2.1-1.3c-1,0.3-1.3,1.3-1.2,2.3c0.3,2.1-0.6,3.9-1.6,5.7c-1.2,2-2.4,4-3.1,6.3
	c0.7-0.4,1.4-0.9,2.1-1.3c-0.9-0.1-2-0.4-2.6-0.8c-0.2-0.1-0.3-0.2-0.5-0.3c-0.1,0-0.6-0.5-0.3-0.2c-0.3-0.3-0.6-0.5-0.8-0.8
	c-0.2-0.3,0.1,0.1-0.2-0.2c-0.1-0.2-0.2-0.3-0.3-0.5c-0.1-0.2-0.2-0.4-0.3-0.6c0-0.1-0.2-0.5-0.1-0.2c-0.3-0.8-0.6-1.7-0.7-2.5
	c-0.7-3.7-0.8-7.5-2.4-10.9c-0.4-0.9-1.6-1.2-2.4-0.7C694.8,81.6,694.6,82.7,695.1,83.6L695.1,83.6z"/>
<path d="M737.5,92.2c0.6,3.8,1.3,8.2,3.5,11.4c1,1.6,2.6,2.8,4.4,2.7c2.4-0.1,4.4-2.1,5.8-4c-0.8,0-1.7,0-2.5,0
	c2.4,3.1,5.7,4.2,9.2,2.3c3-1.6,5.2-4.5,8.1-6.3c1.9-1.2,0.2-4.4-1.8-3.2c-2.5,1.5-4.4,3.8-6.8,5.6c-0.8,0.6-1.9,1.3-3,1.3
	c-1.4,0-2.3-1.2-3.1-2.2c-0.6-0.7-1.9-0.7-2.5,0c-0.6,0.9-1.4,1.8-2.2,2.4c-0.6,0.4-0.9,0.6-1.4,0.5c-0.2,0,0.3,0.1-0.1,0
	c-0.1,0-0.5-0.2-0.2-0.1c-0.4-0.2-0.4-0.2-0.5-0.3c-0.6-0.5-0.7-0.9-1.1-1.6c-1.5-2.8-2-6.3-2.5-9.4c-0.2-1-1.3-1.6-2.1-1.3
	C737.7,90.1,737.3,91.1,737.5,92.2L737.5,92.2z"/>
<path d="M871.6,87.7c0,2.2-0.3,4.4-0.3,6.6c-0.1,2.5-0.2,5.3,0.6,7.6c0.4,1.2,1,2.2,2.1,2.7c1.1,0.6,2.5,0.9,3.7,0.4
	c2.3-0.8,3.8-3.1,4.8-5.4c1.1-2.4,1.9-5,2.6-7.6c0.6-2.3-2.8-3.3-3.3-1c-0.2,0.9-0.5,1.7-0.7,2.6c-0.2,0.5-0.3,1-0.5,1.4
	c-0.1,0.3-0.2,0.5-0.3,0.8c-0.1,0.1-0.1,0.3-0.2,0.4c0.2-0.4-0.1,0.2-0.1,0.2c-0.5,1.1-0.9,2.1-1.5,3c-0.1,0.1-0.5,0.7-0.2,0.3
	c-0.2,0.2-0.3,0.4-0.5,0.6s-0.4,0.3-0.5,0.5c-0.1,0.1-0.3,0.2,0.1,0c-0.1,0.1-0.3,0.2-0.4,0.3c-0.1,0-0.2,0.1-0.2,0.1
	c-0.3,0.2,0.4-0.1,0,0c-0.2,0-0.4,0.1-0.6,0.2c0.6-0.1,0,0-0.2,0c-0.4,0,0.4,0.1,0,0c-0.1,0-0.3-0.1-0.4-0.1c-0.4-0.1,0.3,0.2-0.1,0
	c-0.1-0.1-0.2-0.1-0.3-0.2c-0.5-0.2,0.1,0.1,0.1,0.1l-0.2-0.2c-0.2-0.2,0.1,0.2,0.1,0.2c0-0.1-0.1-0.2-0.2-0.2
	c0-0.1-0.1-0.2-0.1-0.2s0.1,0.4,0,0c-0.1-0.4-0.2-0.8-0.3-1.3c0-0.1,0-0.3-0.1-0.4c0.1,0.4,0,0.1,0,0c0-0.3-0.1-0.6-0.1-0.9
	c-0.1-1.2-0.1-2.5-0.1-3.7c0.1-2.3,0.3-4.5,0.3-6.8C875.1,85.2,871.6,85.2,871.6,87.7L871.6,87.7z"/>
<path d="M918.9,85.2c1.7,4.7,4.9,8.9,9.3,11c0.8,0.4,1.9,0.3,2.4-0.7c1.9-3.5,3.1-7.3,4.5-10.9c0.4-0.9,0.3-2-0.6-2.6
	c-0.7-0.5-2-0.3-2.4,0.7c-1.5,3.7-2.7,7.4-4.5,10.9c0.8-0.2,1.6-0.4,2.4-0.7c-1.9-0.9-3.3-2.1-4.7-3.7c-1.2-1.4-2.3-3.4-3-5.1
	c-0.4-0.9-1.2-1.6-2.1-1.3C919.3,83.1,918.5,84.2,918.9,85.2L918.9,85.2z"/>
<path d="M609,105.6c1.7,3.4,5.1,5.5,8.7,4.9c3.7-0.6,5.7-4.2,5.7-8c-0.8,0.5-1.8,1.1-2.6,1.6c3.5,1.7,6.6,4.4,10.1,6.1
	c4.1,1.9,8.1,1.4,11.9-0.9c1.9-1.2,0.2-4.4-1.8-3.2c-3.1,1.9-6.3,2.1-9.4,0.4s-5.9-4-9.1-5.5c-1.1-0.6-2.6,0.1-2.6,1.6
	c0,1.2-0.2,2.4-0.9,3.2c-0.6,0.7-1.4,1-2,1.1c-2.1,0.3-4-1.1-5-3.1C610.9,101.6,607.9,103.5,609,105.6L609,105.6z"/>
<path d="M415.7,110c3,3.4,7.9,4.7,12,4c1.9-0.3,3.8-1.2,5.1-2.8c1.6-2,1.9-4.4,1.5-6.9c-0.9,0.6-1.9,1.2-2.9,1.8
	c6.8,6.7,15.6,15,25.3,10.2c0.8-0.4,1-1.7,0.6-2.6c-0.5-1-1.5-1.1-2.4-0.7c-8,3.9-15.7-4.3-21.1-9.6c-1.4-1.3-3.1,0-2.9,1.8
	c0.5,3.2-1.6,4.9-4.4,5.2c-3,0.3-6.4-0.7-8.4-3.1C416.6,105.6,414.2,108.2,415.7,110L415.7,110z"/>
<path d="M1880.5,50.6c-9.2,6.2-19.2,13.5-24,24.4c-1.4,3.1-2.2,6.3-2.4,9.7c-0.1,1.6,2.2,1.6,2.3,0c0.6-7.3,4.4-13.6,9.2-18.7
	c4.8-5.2,10.5-9.3,16.2-13.2C1882.9,51.9,1881.7,49.7,1880.5,50.6L1880.5,50.6z"/>
<path d="M1740.1,50.6c-4.6,3.2-8.6,7.4-11.4,12.5c-2.8,5-4.4,10.6-5.7,16.2c-0.4,1.6,1.9,2.2,2.2,0.7c1.2-5.3,2.8-10.6,5.4-15.3
	c2.6-4.9,6.3-8.9,10.7-11.9C1742.6,51.9,1741.3,49.7,1740.1,50.6L1740.1,50.6z"/>
<path d="M1804.6,93.3c-1.1-4-3.3-7.6-5.6-10.8c-2.4-3.4-5.1-6.5-7.6-9.7c-0.9-1.2-2.6,0.5-1.7,1.8c2.4,3.1,4.9,6,7.2,9.2
	c2.2,3.1,4.4,6.5,5.5,10.3C1802.8,95.5,1805,94.9,1804.6,93.3L1804.6,93.3z"/>
<path d="M1694.6,56.8c-7.1,8.2-10.4,18.8-10.5,29.9c0,1.6,2.3,1.6,2.3,0c0.1-10.5,3.1-20.4,9.8-28.1
	C1697.3,57.4,1695.6,55.6,1694.6,56.8L1694.6,56.8z"/>
<path d="M1629.3,72.7c5.6,3.7,9.9,10.4,11.5,17.3c0.4,1.6,2.6,0.9,2.2-0.7c-1.8-7.5-6.5-14.7-12.5-18.7
	C1629.3,69.7,1628,71.9,1629.3,72.7L1629.3,72.7z"/>
<path d="M1574.8,78.6c-3.3,2.6-6.3,5.8-8.4,9.7c-2,3.7-3.2,7.9-4.2,12.1c-0.4,1.6,1.9,2.2,2.2,0.7c0.8-3.9,1.9-7.8,3.8-11.2
	c1.9-3.6,4.6-6.6,7.7-9C1577.2,79.8,1576,77.6,1574.8,78.6L1574.8,78.6z"/>
<path d="M1536.9,92c3.2-8.9-1.9-18-6.6-25c-0.8-1.3-2.9,0-2,1.3c4.4,6.4,9.3,14.8,6.4,23C1534.1,92.8,1536.3,93.5,1536.9,92
	L1536.9,92z"/>
<path d="M1469.6,53.6c-4.4,3.1-7.8,7.2-10.5,12.1c-2.5,4.6-4.4,9.6-6.6,14.4c-0.6,1.4,1.3,2.7,2,1.3c2.2-4.5,3.9-9.3,6.3-13.7
	c2.5-4.7,5.7-8.8,9.9-11.8C1472,54.9,1470.9,52.7,1469.6,53.6L1469.6,53.6z"/>
<path d="M1413.8,74.3c2.1,5.1,5.6,9.4,7.3,14.7c0.5,1.5,2.7,0.9,2.2-0.7c-1.8-5.5-5.3-10-7.5-15.3c-0.3-0.6-1.1-0.8-1.6-0.4
	C1413.6,72.9,1413.5,73.7,1413.8,74.3L1413.8,74.3z"/>
<path d="M1286.8,58.6c-8.1,5.8-14.9,13.1-20.7,21.4c-0.9,1.3,1.1,2.5,2,1.3c5.6-8,12.1-15,19.9-20.6
	C1289.2,59.9,1288.1,57.7,1286.8,58.6L1286.8,58.6z"/>
<path d="M1237.9,48.6c-4.5,3.3-8.8,7.4-12.1,12.1c-3.1,4.4-5.6,10.6-2.1,15.6c0.9,1.3,2.9,0,2-1.3c-3.1-4.4-0.3-9.8,2.5-13.6
	c3.1-4.1,6.8-7.8,10.9-10.7C1240.2,49.8,1239.1,47.7,1237.9,48.6L1237.9,48.6z"/>
<path d="M1175.8,63.5c6.4,5.6,7.6,15.7,5.3,23.8c-0.5,1.5,1.8,2.2,2.2,0.7c2.6-8.8,1.1-20.1-5.8-26.2
	C1176.2,60.8,1174.6,62.5,1175.8,63.5L1175.8,63.5z"/>
<path d="M1135.6,69.9c4.4,1.7,7.9,5.9,10.4,9.9c2.3,3.8,4.6,8.9,3.6,13.6c-0.4,1.6,1.9,2.2,2.2,0.7c1.2-5.4-1.1-11.1-3.8-15.5
	c-2.9-4.6-6.8-9.1-11.8-11C1134.9,66.9,1134.2,69.3,1135.6,69.9L1135.6,69.9z"/>
<path d="M1047.5,79c1-6.6,3.7-12.6,5.6-19c0.5-1.5-1.8-2.2-2.2-0.7c-1.8,6.4-4.5,12.4-5.6,19C1045.1,79.9,1047.3,80.6,1047.5,79
	L1047.5,79z"/>
<path d="M1002.3,74c1.2-5.3,5.3-9.2,9.1-12.6c3.9-3.5,8.1-6.7,11.1-11.1c0.8-1.3-1.1-2.5-2-1.3c-5.9,8.8-17.8,13-20.5,24.3
	C999.7,74.9,1001.9,75.5,1002.3,74L1002.3,74z"/>
<path d="M1846.6,101.3c-4,4.3-7.7,9.2-12.4,12.6c0.8,0.5,1.8,1.1,2.6,1.6c-0.5-3.7-0.7-7.5-0.4-11.3c0.3-3.7,1.3-7.3,2.8-10.7
	c0.9-2.2-2-4.1-3-1.9c-1.7,3.8-2.8,7.7-3.1,11.9c-0.4,4-0.1,8,0.4,12c0.2,1.3,1.4,2.5,2.6,1.6c5-3.7,8.9-8.6,13.1-13.2
	C1850.6,102.3,1848.2,99.6,1846.6,101.3L1846.6,101.3z"/>
<path d="M1805.5,104.2c1.3,4.3,3.1,8.6,2.6,13.2c0.7-0.6,1.5-1.2,2.2-1.8c-3.1-1.1-5.9-2.9-8.3-5.2c-0.7-0.7-1.8-0.7-2.4,0
	c-0.6,0.7-0.7,2,0,2.6c2.9,2.7,6.2,4.9,9.9,6.2c1.2,0.4,2-0.7,2.2-1.8c0.6-4.9-1.3-9.6-2.8-14.2c-0.3-1-1.2-1.6-2.1-1.3
	C1805.9,102.1,1805.2,103.2,1805.5,104.2L1805.5,104.2z"/>
<path d="M1770.4,115.2c-0.3,1.6-0.6,3.3-1.6,4.6c-0.9,1.3-2.3,1.8-3.7,2c0.7,0.4,1.4,0.9,2.1,1.3c-0.3-1.6-1.4-3-1.7-4.6
	c-0.3-1.4-2-1.8-2.9-0.8c-1.7,1.9-3.9,3.8-6.5,3.8c-2.4,0.1-3.9-1.9-4.6-4.3c-0.6-2.3-4-1.3-3.3,1c1.1,3.8,3.6,6.9,7.5,7.1
	c3.6,0.2,6.9-2.2,9.3-4.9c-0.9-0.3-1.9-0.6-2.9-0.8c0.3,1.6,1.4,3,1.7,4.6c0.2,1.1,1.2,1.4,2.1,1.3c4.4-0.7,7-4.6,7.8-9.2
	c0.2-1-0.3-2-1.2-2.3C1771.7,113.6,1770.6,114.2,1770.4,115.2L1770.4,115.2z"/>
<path d="M1723.5,84.7c-3.2,6.2-3.9,13.6-7.4,19.7c0.9-0.1,1.9-0.3,2.7-0.4c-3.1-2.9-3.6-7.2-3.1-11.4c0.1-1-0.8-1.9-1.8-1.9
	c-1,0-1.7,0.9-1.8,1.9c-0.5,5.1,0.5,10.5,4.2,14c0.8,0.8,2.1,0.7,2.7-0.4c3.5-6.1,4.1-13.5,7.4-19.7
	C1727.6,84.5,1724.6,82.6,1723.5,84.7L1723.5,84.7z"/>
<path d="M1686.8,93.3c-3.4,4.2-7.1,8.3-8.7,13.7c0.8-0.4,1.7-0.7,2.6-1.1c-0.1-0.1-0.2-0.2-0.4-0.2c-0.2-0.1,0.2,0.2-0.1-0.1
	c-0.2-0.2-0.4-0.4-0.6-0.6c-0.1-0.1-0.1-0.1,0,0c-0.1-0.1-0.2-0.2-0.2-0.3c-0.1-0.2-0.3-0.4-0.4-0.7c0-0.1-0.2-0.4,0-0.1
	c0-0.1-0.1-0.2-0.1-0.3c-0.1-0.3-0.2-0.5-0.2-0.8c-0.1-0.3-0.1-0.5-0.2-0.8c-0.1-0.4,0,0.1,0-0.1c0-0.1,0-0.3,0-0.4
	c-0.2-2.3,0-4.7,0.1-7c0-1-0.8-1.9-1.8-1.9s-1.7,0.9-1.8,1.9c-0.2,5.1-1,11.4,3.7,14.5c1,0.7,2.2,0,2.6-1.1
	c1.4-4.8,4.7-8.3,7.8-12.1c0.6-0.8,0.7-1.9,0-2.6C1688.7,92.7,1687.5,92.6,1686.8,93.3L1686.8,93.3z"/>
<path d="M1646.7,98.2c1.3,5.7,0.9,11.6,0.7,17.4c0.7-0.6,1.5-1.2,2.2-1.8c-4.4-0.7-8.3-3.6-11.1-7.4c-0.6-0.8-1.9-0.7-2.4,0
	c-0.7,0.8-0.6,1.9,0,2.6c3.1,4.2,7.7,7.6,12.7,8.3c1.1,0.2,2.1-0.5,2.2-1.8c0.3-6.1,0.6-12.4-0.8-18.4
	C1649.5,94.8,1646.1,95.8,1646.7,98.2L1646.7,98.2z"/>
<path d="M1559,107.2c-0.6,1.8-2.1,3.9-3.6,5.2c-0.6,0.5-1.4,1-1.9,1.1c-0.4,0-0.5,0-0.6-0.2c-0.4-0.3-0.6-0.7-0.8-1.2
	c-0.5-0.8-1.7-1.3-2.4-0.7c-1.5,1.1-3.1,2.5-4.8,3c-0.5,0.1-0.8,0.1-0.9,0.1c-0.4-0.1-0.5-0.2-0.7-0.5c-0.8-0.9-1.5-1.9-2.2-3
	c-1.1-1.7-2.3-3.3-3.7-4.7c-1.6-1.7-4.1,1-2.4,2.6c1.4,1.5,2.6,3.1,3.8,4.8c0.9,1.3,1.8,2.7,3.1,3.6c3.3,2.4,7.2-0.7,9.9-2.7
	c-0.8-0.2-1.6-0.4-2.4-0.7c1.7,3.3,4.9,4.1,7.8,2c2.6-1.8,4.5-4.7,5.7-7.8c0.4-0.9-0.4-2-1.2-2.3
	C1560.1,105.5,1559.4,106.2,1559,107.2L1559,107.2z"/>
<path d="M1456.7,91.7c-1.2,2.4-2.3,4.8-3.6,7.1c-0.2,0.4-0.5,0.8-0.7,1.2c-0.1,0.2-0.2,0.3-0.3,0.5c0,0.1-0.1,0.1-0.1,0.2
	c-0.2,0.3,0.3-0.3,0,0c-0.2,0.2-0.4,0.4-0.6,0.6c-0.1,0.1-0.2,0.2-0.3,0.3c-0.2,0.2,0.2-0.2,0.2-0.2l-0.2,0.1
	c-0.1,0-0.2,0.1-0.2,0.1c0.3-0.3,0.5-0.1,0.2-0.1c-0.2,0,0.6,0,0.2,0c-0.3,0,0.6,0.1,0.2,0c-0.3-0.1,0.5,0.3,0.2,0.1
	c-0.3-0.2,0.2,0.2,0.1,0.1s-0.1-0.1-0.2-0.2c-0.3-0.3,0.2,0.3,0,0c-0.3-0.5-0.6-1-0.7-1.5c-0.1-0.2-0.2-0.4,0-0.1
	c-0.1-0.2-0.1-0.3-0.2-0.5c-0.2-0.4-0.3-0.9-0.5-1.3c-0.8-2.4-1.5-4.7-2.3-7.1c-0.3-0.9-1.2-1.6-2.1-1.3c-0.8,0.3-1.6,1.3-1.2,2.3
	c0.7,2.3,1.5,4.6,2.3,7c0.5,1.5,1,3.1,1.9,4.4s2,2.1,3.5,1.6c1.5-0.5,2.5-2.1,3.3-3.4c1.6-2.6,3-5.4,4.3-8.2c0.5-0.9,0.2-2-0.6-2.6
	C1458.3,90.5,1457.1,90.8,1456.7,91.7L1456.7,91.7z"/>
<path d="M1427.1,103.7c-1,1.8-1.9,3.8-3,5.6c-0.3,0.4-0.5,0.8-0.7,1.2c0.2-0.3,0,0,0,0c-0.1,0.1-0.2,0.2-0.2,0.3
	c-0.2,0.2-0.3,0.4-0.5,0.5c-0.2,0.2-0.4,0.3-0.5,0.5c-0.1,0.1-0.2,0.1-0.2,0.2c0.3-0.3,0,0-0.1,0.1c-0.2,0.1-0.4,0.2-0.6,0.4
	c-0.1,0.1-0.2,0.1-0.3,0.2c-0.1,0-0.5,0.2-0.1,0.1c0.6,0.3,1.3,0.6,1.9,0.9c-0.1-0.1-0.1-0.2-0.1-0.3c0.1,0.2,0.1,0.2,0-0.1
	c-0.1-0.2-0.1-0.3-0.2-0.5c-0.1-0.4-0.2-0.8-0.3-1.2c-0.1-0.2-0.1-0.5-0.1-0.7c-0.1-0.4,0,0.2,0-0.2c-0.1-0.5-0.1-0.9-0.1-1.4
	c-0.1-1.8,0-3.7,0-5.6c0-1-0.8-1.9-1.8-1.9s-1.8,0.8-1.8,1.9c-0.1,4-0.3,8.1,1.3,11.9c0.3,0.7,1.3,1.2,1.9,0.9
	c2.2-1,3.8-2.6,5.1-4.8c1.2-1.9,2-4.1,3.1-6c0.5-0.8,0.2-2.1-0.6-2.6C1428.7,102.6,1427.6,102.8,1427.1,103.7L1427.1,103.7z"/>
<path d="M1379.9,102.2c0.4,2.4-1.9,4.5-3.8,5.6c0.7,0.1,1.4,0.2,2.1,0.3c-0.8-1-1.9-1.7-2.8-2.7c-0.6-0.7-1.9-0.7-2.4,0
	c-0.9,1-2,2.1-3.1,2.5c-0.6,0.2-0.6,0.2-1.2,0.2c-0.2,0,0.3,0.1-0.1,0c-0.1,0-0.2-0.1-0.3-0.1c-0.2-0.1-0.1-0.1,0,0
	c-0.1-0.1-0.2-0.1-0.3-0.2c-0.2-0.1,0.2,0.2,0,0c-0.1-0.1-0.2-0.1-0.2-0.2c-0.1-0.1-0.2-0.2-0.2-0.2c-0.1-0.1,0.1,0.2-0.1-0.1
	c-0.1-0.2-0.2-0.4-0.4-0.6c0-0.1-0.1-0.2,0-0.1c-0.1-0.1-0.1-0.3-0.2-0.5c-0.4-1.2-0.4-2.1-0.3-3.4c0.1-1-0.8-1.9-1.8-1.9
	c-1,0-1.7,0.9-1.8,1.9c-0.3,3,0.6,6.8,3.1,8.4c3.2,2.1,6.8-0.6,9.1-3.1c-0.8,0-1.7,0-2.4,0c0.8,1,1.9,1.7,2.8,2.7
	c0.5,0.6,1.5,0.7,2.1,0.3c3.3-2,6.1-5.5,5.4-9.8c-0.2-1-1.3-1.6-2.1-1.3C1380.1,100.1,1379.7,101.2,1379.9,102.2L1379.9,102.2z"/>
<path d="M1270.5,89.3c-1.5,1.5-3.1,3-4.6,4.5c-0.8,0.8-1.8,1.6-2.6,2.3c-0.2,0.2,0.3-0.3-0.1,0.1c-0.1,0.1-0.3,0.2-0.4,0.3
	c-0.2,0.2-0.4,0.3-0.6,0.5c-0.5,0.4-0.9,0.7-1.4,1c-0.7,0.6-1.6,1.1-2.4,1.5c-0.1,0.1-0.8,0.4-0.3,0.2c-0.2,0.1-0.4,0.1-0.5,0.2
	c-0.4,0.1-0.7,0.2-1.1,0.3c0.4-0.1,0.3,0-0.1,0c-0.1,0-0.3,0-0.4,0c-0.3,0,0.4,0.2,0.2,0c-0.1,0-0.2,0-0.2-0.1c-0.4-0.2,0.4,0.3,0,0
	c-0.4-0.2,0.4,0.3,0,0c-0.1,0-0.1-0.1-0.2-0.2c-0.2-0.2,0.2,0.4,0.1,0.1c0-0.1-0.2-0.3-0.2-0.4c0.3,0.5,0,0-0.1-0.2
	c0-0.2-0.1-1-0.1-0.4c0-0.3,0-0.6-0.1-0.8c0-0.7,0-1.4,0.1-2c0,0,0.1-0.6,0-0.3c0-0.3,0.1-0.6,0.1-0.8c0.1-0.5,0.2-0.9,0.3-1.4
	c0.2-1.2,0.5-2.3,0.7-3.4c0.6-2.3-2.8-3.3-3.3-1c-0.9,3.8-3.7,14.2,2.6,14.7c1.9,0.2,3.7-0.8,5.3-1.8c2.1-1.3,4.1-2.9,5.9-4.6
	c1.9-1.8,3.9-3.6,5.7-5.6C1274.5,90.3,1272,87.7,1270.5,89.3L1270.5,89.3z"/>
<path d="M1224,81.7c-1.6,3.4-1.7,7.2-2.4,10.9c-0.2,0.8-0.4,1.7-0.7,2.5c0.1-0.3-0.1,0.2-0.1,0.2c-0.1,0.2-0.2,0.4-0.3,0.6
	c-0.1,0.1-0.2,0.3-0.3,0.4c-0.1,0.1-0.1,0.2-0.2,0.3c0.1-0.2,0.1-0.1,0,0c-0.3,0.3-0.5,0.6-0.8,0.8c0.3-0.2-0.3,0.2-0.3,0.2
	c-0.2,0.1-0.3,0.2-0.5,0.3c-0.6,0.4-1.7,0.6-2.6,0.8c0.7,0.4,1.4,0.9,2.1,1.3c-0.7-2.3-2-4.2-3.1-6.3c-1-1.7-1.9-3.6-1.6-5.7
	c0.1-1-0.2-2-1.2-2.3c-0.8-0.2-2,0.3-2.1,1.3c-0.4,2.8,0.2,5.3,1.5,7.7c1.1,2.1,2.5,3.9,3.2,6.2c0.4,1,1.1,1.5,2.1,1.3
	c2-0.3,4-1.2,5.4-2.7c1.3-1.4,2-3.3,2.5-5.2c0.5-1.8,0.6-3.7,0.9-5.6c0.2-1,0.3-1.9,0.6-2.8c0.2-0.9,0.5-1.8,0.7-2.4
	c0.4-0.9,0.2-2-0.6-2.6C1225.6,80.6,1224.5,80.8,1224,81.7L1224,81.7z"/>
<path d="M1181.3,91.2c-0.5,3.2-1,6.6-2.5,9.4c-0.4,0.7-0.6,1.1-1,1.5c-0.2,0.2-0.2,0.2-0.6,0.4c0.4-0.2-0.6,0.1-0.2,0.1
	c-0.6,0.1-0.8-0.1-1.5-0.5c-0.8-0.6-1.6-1.5-2.2-2.4c-0.6-0.7-1.9-0.7-2.4,0c-0.7,1-1.8,2.1-3.1,2.2c-1.1,0.1-2.2-0.6-3.1-1.3
	c-2.4-1.7-4.4-4-6.8-5.6c-1.9-1.2-3.7,2-1.8,3.2c2.9,1.8,5.1,4.7,8.1,6.3c3.4,1.9,6.7,0.8,9.2-2.3c-0.8,0-1.7,0-2.4,0
	c1.4,1.9,3.3,3.9,5.7,4c1.9,0.1,3.4-1.1,4.5-2.7c2.1-3.2,2.9-7.6,3.5-11.4c0.2-1-0.3-2-1.2-2.3C1182.7,89.6,1181.5,90.2,1181.3,91.2
	L1181.3,91.2z"/>
<path d="M1047.4,87.7c0,1.9,0.2,3.9,0.3,5.8c0,1.2,0.1,2.5,0,3.7c0,0.6-0.1,1.1-0.1,1.7c0,0.1,0,0.3,0,0.4c0.1-0.5,0,0,0,0.1
	c0,0.3-0.1,0.5-0.2,0.8c0,0.2-0.1,0.4-0.2,0.6c-0.1,0.5,0.2-0.3-0.1,0.2c0,0.1-0.1,0.2-0.1,0.3c0,0.1-0.3,0.1,0.1-0.2
	c-0.1,0-0.1,0.1-0.2,0.2c-0.2,0.2,0.4-0.3,0.1-0.1c-0.1,0.1-0.3,0.1-0.4,0.2c-0.4,0.2,0.2-0.1,0,0c-0.2,0.1-0.8,0.1-0.3,0.1
	c-0.2,0-0.4,0-0.6,0c0.5,0,0.2,0.1,0.1,0c-0.1,0-0.3-0.1-0.4-0.1c-0.4-0.1,0.2,0.2,0.1,0c-0.1-0.1-0.2-0.1-0.3-0.1
	c-0.2-0.1-0.6-0.4-0.2-0.1c-0.4-0.4-0.7-0.7-1-1.1c-0.2-0.2,0.3,0.4,0,0c-0.1-0.1-0.2-0.2-0.3-0.4c-0.1-0.2-0.3-0.4-0.4-0.7
	c-0.3-0.5-0.6-1-0.7-1.6c-0.1-0.3-0.3-0.6-0.4-0.9c-0.2-0.5,0.1,0.3-0.1-0.2c-0.1-0.1-0.1-0.3-0.2-0.5c-0.2-0.6-0.4-1.2-0.6-1.8
	c-0.3-1-0.6-2-0.8-3c-0.6-2.3-3.9-1.3-3.3,1c0.6,2.3,1.3,4.5,2.2,6.7s2.2,4.7,4.4,5.8c2.1,1.2,5.2,0.6,6.4-1.8c1-2.2,1-5.1,1-7.5
	c0-2.6-0.3-5.1-0.3-7.7C1050.9,85.2,1047.4,85.2,1047.4,87.7L1047.4,87.7z"/>
<path d="M1000.4,84.2c-0.6,1.8-1.7,3.7-3,5.1c-1.4,1.6-2.8,2.8-4.6,3.7c0.8,0.2,1.6,0.4,2.4,0.7c-1.9-3.5-3.1-7.3-4.5-10.9
	c-0.4-0.9-1.7-1.1-2.4-0.7c-0.9,0.6-1,1.6-0.6,2.6c1.5,3.7,2.7,7.4,4.5,10.9c0.5,0.9,1.6,1.1,2.4,0.7c4.3-2.1,7.6-6.3,9.2-11
	c0.4-0.9-0.4-2.1-1.2-2.3C1001.6,82.6,1000.7,83.2,1000.4,84.2L1000.4,84.2z"/>
<path d="M1309.9,103.7c-1,2.1-2.9,3.4-5,3.1c-0.6-0.1-1.5-0.5-2-1.1c-0.7-0.9-0.9-2.1-0.9-3.2c0-1.5-1.5-2.2-2.6-1.6
	c-3.1,1.6-5.9,3.9-9.1,5.5c-3.2,1.7-6.3,1.5-9.4-0.4c-1.9-1.2-3.7,2.1-1.8,3.2c3.8,2.3,7.9,2.7,11.8,0.9c3.5-1.6,6.6-4.3,10.1-6.1
	c-0.8-0.5-1.8-1.1-2.6-1.6c0,3.9,2,7.4,5.7,8c3.5,0.6,7-1.5,8.7-4.9C1313.9,103.5,1310.9,101.6,1309.9,103.7L1309.9,103.7z"/>
<path d="M1503.1,107.3c-2,2.4-5.5,3.4-8.4,3.1c-2.7-0.3-4.8-1.9-4.4-5.2c0.3-1.8-1.6-3.2-2.9-1.8c-5.4,5.3-13.1,13.5-21,9.6
	c-0.8-0.4-1.9-0.3-2.4,0.7c-0.5,0.8-0.2,2.1,0.6,2.6c9.7,4.8,18.5-3.5,25.3-10.2c-0.9-0.6-1.9-1.2-2.9-1.8c-0.4,2.5-0.1,4.9,1.4,6.9
	c1.3,1.6,3.2,2.6,5.2,2.9c4.2,0.7,9.1-0.6,11.9-4C1507.1,108.2,1504.7,105.6,1503.1,107.3L1503.1,107.3z"/>
</svg>
