<?xml version="1.0" encoding="utf-8"?>
<!-- Generator: Adobe Illustrator 27.9.5, SVG Export Plug-In . SVG Version: 9.03 Build 54986)  -->
<svg version="1.1" id="Calque_1" xmlns="http://www.w3.org/2000/svg" xmlns:xlink="http://www.w3.org/1999/xlink" x="0px" y="0px"
	 viewBox="0 0 5281 319.3" style="enable-background:new 0 0 5281 319.3;" xml:space="preserve">
<style type="text/css">
	.st0{fill:#4BCFDD;}
</style>
<path class="st0" d="M5278.2,270.1c-11-54.7-36.3-128.2-94.1-154.9c8.5,20.1,10.2,69.9,14.3,118.8c-13.8-24.2-23.9-49.5-29.4-77.3
	c-9.1,21.2-14.9,40.7-17.9,58.9c-4.4-6.6-9.1-13.2-14.6-19.8c-3.9,14-9.9,28.3-16.8,43.7c5-56.1,5.2-110,14.9-146.9
	c-29.2,22-50.6,50.3-66.3,80.3c-5.8-18.7-12.9-38.2-21.7-57.5c-7.4,32.5-19.3,67.1-31.6,105.6c3.9-55.8,5-108.9,11.6-145.8
	c-22.6,27.5-38.2,64.1-49.2,101.2c-11.8-23.4-20.9-47.9-26.1-74c-8.5,19.3-14.3,37.4-18.2,54.5c-7.2-37.7-11.3-79.5-11.3-127.9
	c-20.9,34.9-32.2,80.3-37.7,125.4c-15.7-26.7-36-54.2-63-81.4c12.9,35.8,7.7,75.1,4.7,118.5c-5.2-2.8-10.5-5.5-16.2-8.3
	c8.5,20.6,11.3,40.7,14.9,63c0,1.4,0,2.8,0.3,4.1c-37.1-44-64.1-91.6-75.1-146.3c-22.6,51.7-27.8,96-20.9,130.9
	c-8.3-3-16.8-5.5-25.9-6.6c-3.6-3.3-7.4-6.6-11.3-9.9c9.1-19.3,15.7-41,17.3-66.8c-7.7,10.5-16.8,18.7-27.2,25.9
	c-2.5-24.5-9.6-48.1-23.9-67.9c-1.6,18.2-10.7,44.8-21.2,74.3c-1.9-0.8-3.6-1.9-5.8-2.8c1.4,3,2.5,6.1,3.3,9.1
	c-1.9,5.2-3.6,10.7-5.5,16c-5.5,2.8-11,5.5-16.8,8.5c9.1-43.7,10.7-92.4-8.3-139.5c-6.1,49.2-36,93.2-60.8,147.2
	c6.3-53.6,5.2-111.4-16.8-152.4c-3.6,31.4-20.4,82.2-36.6,135.9c-3.9-71.2-10.7-130.6-8.8-193.6c-24.2,39.3-40.4,81.4-51.2,122.4
	c-14.6-18.2-32.2-33.3-53.4-42.9c10.5,25.6,12.4,89.4,17.6,151.3c-6.6,6.6-12.7,13.2-18.2,19.8c-1.6-74.5-10.2-132.6-7.2-194.2
	c-39.9,55.8-58.3,117.4-66.3,171.1c-5.8-8.8-11.8-17.9-19-27.2c-3.9,14-9.9,28.3-16.8,43.7c5-56.1,5.2-110,14.9-146.9
	c-29.2,22-50.6,50.3-66.3,80.3c-5.8-18.7-12.9-38.2-21.7-57.5c-7.4,32.5-19.3,67.1-31.6,105.6c3.9-55.8,5-108.9,11.6-145.8
	c-26.4,32.2-43.5,76.7-54.2,120.2c-11.6-55-33.3-112.2-70.7-146.6c7.7,66,18.2,129.8,22.8,187.6c-13.8-17.1-30.8-35.2-52.5-53.4
	c8.5,19.3,13.2,37.1,18.7,56.9c-18.4-19.5-44-39.1-80.9-56.1c10.2,24.8,12.4,49,17.1,76.7c-8-4.1-16.2-8-25-10.5
	c-17.1-55.3-36-102.9-46.5-146.3c-9.4,19.5-17.1,38.8-23.1,57.5c-16.5-30-39.1-58.3-70.1-80.3c10.2,36.9,10.5,90.8,15.7,146.9
	c-7.2-15.4-13.8-29.7-17.6-43.7c-7.7,9.1-14.3,18.2-20.4,27c-8.3-53.6-27.8-115-69.9-170.8c3.3,61.6-5.8,119.6-7.4,194.2
	c-5.8-6.6-12.1-13.2-19.3-19.8c5.5-61.9,7.4-126,18.7-151.3c-22.3,9.9-41,25-56.4,42.9c-11.6-41-28.6-82.8-54.2-122.4
	c2.2,62.7-5.2,122.4-9.4,193.6c-17.1-53.6-34.9-104.5-38.8-135.9c-23.1,41-24.5,98.7-17.9,152.4c-26.1-53.9-57.8-97.9-64.1-147.2
	c-20.1,47-18.4,95.7-8.8,139.5c-6.1-3-11.8-5.8-17.6-8.5c-1.9-5.5-3.9-10.7-5.8-16c1.1-3,2.2-6.1,3.6-9.1c-2.2,0.8-3.9,1.9-6.1,2.8
	c-11-29.4-20.6-56.1-22.3-74.3c-15.1,19.8-22.6,43.5-25.3,67.9c-11-7.2-20.6-15.4-28.9-25.9c1.9,25.6,8.8,47.6,18.4,66.8
	c-4.1,3.3-8.3,6.6-12.1,9.9c-9.6,1.4-18.7,3.6-27.2,6.6c7.2-34.9,1.7-78.9-22.3-130.9c-11.6,55-40.4,102.9-80,147.2
	c4.1-23.9,6.9-45.7,16.5-67.7c-20.9,9.1-38.5,19.3-53.4,29.4c-2.2-53.1-12.7-100.4,3.6-142.5c-33,31.6-56.7,63.8-74,94.3
	c-17.3-56.9-42.4-115-76.5-152.1c14.9,62.2,21.7,116.6,23.7,166.4c-11.6-38-28.3-75.6-52.8-104c6.9,36.9,8.3,89.9,12.4,145.8
	c-12.9-38.5-25.6-73.2-33.6-105.6c-9.4,19.5-17.1,38.8-23.1,57.5c-16.5-30-39.1-58.3-70.1-80.3c10.2,36.9,10.5,90.8,15.7,146.9
	c-7.2-15.4-13.8-29.7-17.6-43.7c-8,9.6-14.9,19-20.9,28.1c-8.5-52.8-24.2-113.6-52.5-154.9c3,19.5,5,43.5,6.6,69.9
	c-17.3-25.6-39.1-50.3-66.6-71.5c14.6,51.7,19,103.4,29.7,164.5c-16-17.9-33.8-34.9-52.8-48.4c-17.1-35.5-41.8-69.9-77.8-95.4
	c10.2,37.1,10.5,91.3,15.7,147.7c-9.9-21.5-23.4-44.3-39.9-66.8c-0.8,21.2-3.9,44-7.2,68.2c-3.3-24.2-6.3-47-7.2-68.2
	c-16.5,22.6-29.7,45.4-39.9,66.8c5.2-56.4,5.5-110.6,15.7-147.7c-36.3,25.6-60.8,60-77.8,95.4c-19,13.5-36.9,30.5-52.8,48.4
	c10.7-61.1,15.1-113,29.7-164.5c-27.5,21.2-49.2,45.9-66.6,71.5c1.7-26.4,3.6-50.6,6.6-69.9c-28.3,41-44,102-52.5,154.9
	c-6.1-9.1-12.9-18.4-20.9-28.1c-4.1,14-10.5,28.3-17.6,43.7c5.2-56.1,5.5-110,15.7-146.9c-31.1,22-53.6,50.3-70.1,80.3
	c-6.1-18.7-13.8-38.2-23.1-57.5c-8,32.5-20.4,67.1-33.6,105.6c3.9-55.8,5.5-108.9,12.4-145.8c-24.5,28.1-41.3,65.7-52.8,104
	c1.9-49.8,8.8-104.2,23.7-166.4c-33.8,37.1-59.1,95.2-76.5,152.1c-14.9-31.4-38.5-63.5-71.8-95.2c16.2,42.1,5.8,89.4,3.6,142.5
	c-14.9-10.2-32.5-20.1-53.4-29.4c9.6,22,12.4,43.5,16.5,67.7c-39.6-44.3-68.5-91.9-80-147.2c-23.9,51.7-29.2,96-22.3,130.9
	c-8.8-3-17.9-5.5-27.2-6.6c-3.9-3.3-7.7-6.6-12.1-9.9c9.6-19.3,16.5-41,18.4-66.8c-8,10.5-17.9,18.7-28.9,25.9
	c-2.8-24.5-10.2-48.1-25.3-67.9c-1.7,18.2-11.3,44.8-22.3,74.3c-1.9-0.8-3.9-1.9-6.1-2.8c1.4,3,2.5,6.1,3.6,9.1
	c-1.9,5.2-3.9,10.7-5.8,16c-5.8,2.8-11.6,5.5-17.6,8.5c9.6-43.7,11.3-92.4-8.8-139.5c-6.3,49.2-38.2,93.2-64.1,147.2
	c6.6-53.6,5.5-111.4-17.9-152.4c-3.9,31.4-21.7,82.2-38.8,135.9c-4.1-71.2-11.3-130.6-9.4-193.6c-25.6,39.3-42.9,81.4-54.2,122.4
	c-15.4-18.2-34.1-33.3-56.4-42.9c11.3,25.6,13.2,89.4,18.7,151.3c-6.9,6.6-13.2,13.2-19.3,19.8c-1.7-74.5-10.7-132.6-7.4-194.2
	c-41.8,56.1-61.3,117.7-69.3,171.1c-6.1-8.8-12.7-17.9-20.4-27c-4.1,14-10.5,28.3-17.6,43.7c5.2-56.1,5.5-110,15.7-146.9
	c-31.1,22-53.6,50.3-70.1,80.3c-6.1-18.7-13.8-38.2-23.1-57.5c-10.5,43.5-29.4,91-46.5,146.3c-8.8,2.8-17.1,6.3-25,10.5
	c5-27.8,6.9-52,17.1-76.7c-36.6,17.1-62.4,36.9-80.9,56.1c5.5-19.5,10.2-37.4,18.7-56.9c-21.7,18.2-38.8,36.3-52.5,53.4
	c4.7-58,15.1-121.8,22.8-187.6c-37.4,34.4-59.1,91.6-70.7,146.6c-11-43.5-27.8-88-54.2-120.2c6.6,36.9,8,89.9,11.6,145.8
	c-12.1-38.5-24.2-73.2-31.6-105.6c-8.8,19.5-16,38.8-21.7,57.5c-15.7-30-36.9-58.3-66.3-80.3c9.6,36.9,9.9,90.8,14.9,146.9
	c-6.9-15.4-12.9-29.7-16.8-43.7c-7.4,9.4-13.5,18.4-19,27.2c-7.7-53.6-26.1-115.2-66.3-171.1c3.3,61.6-5.5,119.6-7.2,194.2
	c-5.5-6.6-11.6-13.2-18.2-19.8c5.2-61.9,7.2-126,17.6-151.3c-21.2,9.9-38.5,25-53.4,42.9c-10.7-41-27-82.8-51.2-122.4
	c1.9,62.7-5,122.4-8.8,193.6c-16.2-53.6-33-104.5-36.6-135.9c-22,41-23.1,98.7-16.8,152.4c-24.5-53.9-54.5-97.9-60.8-147.2
	c-19,47-17.3,95.7-8.3,139.5c-5.5-3-11.3-5.8-16.8-8.5c-1.9-5.5-3.9-10.7-5.5-16c1.1-3,2.2-6.1,3.3-9.1c-1.9,0.8-3.9,1.9-5.8,2.8
	c-10.2-29.4-19.3-56.1-21.2-74.3c-14.3,19.8-21.5,43.5-23.9,67.9c-10.5-7.2-19.5-15.4-27.2-25.9c1.9,25.6,8.3,47.6,17.3,66.8
	c-4.1,3.3-7.7,6.6-11.3,9.9c-9.1,1.4-17.6,3.6-25.9,6.6c6.6-34.9,1.7-79.2-20.9-130.9c-11,54.7-38,102.3-75.1,146.3
	c0-1.4,0-2.8,0.3-4.1c3.6-22.3,6.3-42.4,14.9-63c-5.8,2.8-11,5.5-16.2,8.3c-3.3-43.5-8.3-82.8,4.7-118.5c-27,27.2-47.3,55-63,81.4
	c-5.5-45.1-16.8-90.5-37.7-125.4c0.3,48.1-4.1,89.9-11.3,127.9c-3.9-17.1-9.9-35.2-18.2-54.5c-5.2,26.1-14,50.6-26.1,74
	c-11-37.1-26.4-73.7-49.2-101.2c6.6,36.9,8,89.9,11.6,145.8c-12.1-38.5-24.2-73.2-31.6-105.6c-8.8,19.5-16,38.8-21.7,57.5
	c-15.7-30-36.9-58.3-66.3-80.3c9.6,36.9,9.9,90.8,14.9,146.9c-6.9-15.4-12.9-29.7-16.8-43.7c-5.2,6.6-10.2,13.2-14.6,19.8
	c-3-18.2-8.8-37.7-17.9-58.9c-4.4,28.1-14.6,53.6-28.3,77.8c3.9-49.2,5.8-98.7,14-119.1C39.1,141.7,13.8,215.4,2.8,270.1
	c-0.8-7.4-1.7-14.3-2.8-21.5v70.7h2640.5H5281v-70.7C5280.2,255.5,5279.1,262.7,5278.2,270.1z"/>
</svg>
